<svg width="170" height="170" viewBox="0 0 170 170" fill="none" xmlns="http://www.w3.org/2000/svg">
<g filter="url(#filter0_i_28_813)">
<circle cx="85" cy="85" r="85" fill="url(#paint0_radial_28_813)"/>
</g>
<path d="M37.4191 92.312C36.2831 92.312 35.2151 92.088 34.2151 91.64C33.2151 91.184 32.3351 90.556 31.5751 89.756C30.8231 88.956 30.2311 88.032 29.7991 86.984C29.3751 85.928 29.1631 84.8 29.1631 83.6C29.1631 82.392 29.3751 81.264 29.7991 80.216C30.2311 79.16 30.8231 78.236 31.5751 77.444C32.3351 76.644 33.2151 76.02 34.2151 75.572C35.2151 75.116 36.2831 74.888 37.4191 74.888C38.7791 74.888 40.0311 75.204 41.1751 75.836C42.3191 76.46 43.2671 77.296 44.0191 78.344L41.0671 79.94C40.6191 79.412 40.0791 78.992 39.4471 78.68C38.8151 78.36 38.1391 78.2 37.4191 78.2C36.7391 78.2 36.0991 78.34 35.4991 78.62C34.8991 78.9 34.3711 79.288 33.9151 79.784C33.4671 80.28 33.1151 80.852 32.8591 81.5C32.6031 82.148 32.4751 82.848 32.4751 83.6C32.4751 84.344 32.6031 85.044 32.8591 85.7C33.1151 86.348 33.4671 86.92 33.9151 87.416C34.3711 87.904 34.8991 88.292 35.4991 88.58C36.0991 88.86 36.7391 89 37.4191 89C38.1471 89 38.8231 88.84 39.4471 88.52C40.0791 88.2 40.6191 87.776 41.0671 87.248L44.0191 88.856C43.2671 89.896 42.3191 90.732 41.1751 91.364C40.0311 91.996 38.7791 92.312 37.4191 92.312ZM57.3614 84.368V92H54.0494V85.28C54.0494 84.856 53.9454 84.476 53.7374 84.14C53.5374 83.796 53.2654 83.524 52.9214 83.324C52.5854 83.124 52.2094 83.024 51.7934 83.024C51.3774 83.024 50.9974 83.124 50.6534 83.324C50.3094 83.524 50.0374 83.796 49.8374 84.14C49.6374 84.476 49.5374 84.856 49.5374 85.28V92H46.2254L46.2134 74H49.5254L49.5374 80.888C49.9374 80.504 50.4054 80.204 50.9414 79.988C51.4854 79.772 52.0574 79.664 52.6574 79.664C53.5294 79.664 54.3174 79.876 55.0214 80.3C55.7334 80.724 56.3014 81.292 56.7254 82.004C57.1494 82.708 57.3614 83.496 57.3614 84.368ZM64.8059 92.312C63.7019 92.312 62.6939 92.028 61.7819 91.46C60.8779 90.892 60.1539 90.128 59.6099 89.168C59.0739 88.208 58.8059 87.148 58.8059 85.988C58.8059 85.116 58.9619 84.3 59.2739 83.54C59.5859 82.772 60.0139 82.1 60.5579 81.524C61.1099 80.94 61.7499 80.484 62.4779 80.156C63.2059 79.828 63.9819 79.664 64.8059 79.664C65.7579 79.664 66.6259 79.868 67.4099 80.276C68.2019 80.684 68.8699 81.24 69.4139 81.944C69.9659 82.648 70.3579 83.444 70.5899 84.332C70.8299 85.22 70.8699 86.144 70.7099 87.104H62.3819C62.4859 87.456 62.6459 87.776 62.8619 88.064C63.0859 88.344 63.3579 88.568 63.6779 88.736C64.0059 88.904 64.3819 88.992 64.8059 89C65.2219 89.008 65.6059 88.912 65.9579 88.712C66.3099 88.512 66.6099 88.244 66.8579 87.908L70.2419 88.688C69.7539 89.752 69.0259 90.624 68.0579 91.304C67.0899 91.976 66.0059 92.312 64.8059 92.312ZM62.2619 84.656H67.3619C67.2579 84.256 67.0819 83.896 66.8339 83.576C66.5859 83.256 66.2859 83.004 65.9339 82.82C65.5899 82.636 65.2139 82.544 64.8059 82.544C64.4059 82.544 64.0299 82.636 63.6779 82.82C63.3339 83.004 63.0379 83.256 62.7899 83.576C62.5499 83.888 62.3739 84.248 62.2619 84.656ZM79.8253 88.208L82.8013 89.816C82.2493 90.568 81.5573 91.172 80.7253 91.628C79.8933 92.084 78.9853 92.312 78.0013 92.312C76.8973 92.312 75.8893 92.028 74.9773 91.46C74.0733 90.892 73.3493 90.132 72.8053 89.18C72.2693 88.22 72.0013 87.16 72.0013 86C72.0013 85.12 72.1573 84.3 72.4693 83.54C72.7813 82.772 73.2093 82.1 73.7533 81.524C74.3053 80.94 74.9453 80.484 75.6733 80.156C76.4013 79.828 77.1773 79.664 78.0013 79.664C78.9853 79.664 79.8933 79.892 80.7253 80.348C81.5573 80.804 82.2493 81.416 82.8013 82.184L79.8253 83.792C79.5773 83.528 79.2933 83.328 78.9733 83.192C78.6613 83.048 78.3373 82.976 78.0013 82.976C77.4893 82.976 77.0293 83.116 76.6213 83.396C76.2213 83.676 75.9013 84.048 75.6613 84.512C75.4293 84.968 75.3133 85.464 75.3133 86C75.3133 86.528 75.4333 87.02 75.6733 87.476C75.9133 87.932 76.2333 88.3 76.6333 88.58C77.0413 88.86 77.4973 89 78.0013 89C78.3453 89 78.6733 88.928 78.9853 88.784C79.2973 88.64 79.5773 88.448 79.8253 88.208ZM95.6463 92H91.8303L89.2863 87.62L87.8223 89.36V92H84.5103V74H87.8223V84.212L91.3503 80H95.6703L91.5543 84.932L95.6463 92ZM97.0963 83.144H104.776V86.456H97.0963V83.144ZM112.947 92.312C111.843 92.312 110.835 92.028 109.923 91.46C109.019 90.892 108.295 90.132 107.751 89.18C107.215 88.22 106.947 87.16 106.947 86C106.947 85.12 107.103 84.3 107.415 83.54C107.727 82.772 108.155 82.1 108.699 81.524C109.251 80.94 109.891 80.484 110.619 80.156C111.347 79.828 112.123 79.664 112.947 79.664C114.051 79.664 115.055 79.948 115.959 80.516C116.871 81.084 117.595 81.848 118.131 82.808C118.675 83.768 118.947 84.832 118.947 86C118.947 86.872 118.791 87.688 118.479 88.448C118.167 89.208 117.735 89.88 117.183 90.464C116.639 91.04 116.003 91.492 115.275 91.82C114.555 92.148 113.779 92.312 112.947 92.312ZM112.947 89C113.459 89 113.919 88.864 114.327 88.592C114.735 88.312 115.055 87.944 115.287 87.488C115.519 87.032 115.635 86.536 115.635 86C115.635 85.448 115.511 84.944 115.263 84.488C115.023 84.024 114.699 83.656 114.291 83.384C113.883 83.112 113.435 82.976 112.947 82.976C112.443 82.976 111.987 83.116 111.579 83.396C111.171 83.676 110.847 84.044 110.607 84.5C110.375 84.956 110.259 85.456 110.259 86C110.259 86.568 110.379 87.08 110.619 87.536C110.867 87.984 111.195 88.34 111.603 88.604C112.011 88.868 112.459 89 112.947 89ZM119.983 87.608V80H123.295V86.696C123.295 87.12 123.395 87.504 123.595 87.848C123.803 88.184 124.079 88.452 124.423 88.652C124.767 88.852 125.143 88.952 125.551 88.952C125.967 88.952 126.347 88.852 126.691 88.652C127.035 88.452 127.307 88.184 127.507 87.848C127.707 87.504 127.807 87.12 127.807 86.696V80H131.119L131.131 92H127.819L127.807 91.088C127.407 91.472 126.935 91.772 126.391 91.988C125.855 92.204 125.287 92.312 124.687 92.312C123.823 92.312 123.035 92.1 122.323 91.676C121.611 91.252 121.043 90.688 120.619 89.984C120.195 89.272 119.983 88.48 119.983 87.608ZM140.07 83.312H137.91V92H134.598V83.312H132.942V80H134.598V76.232H137.91V80H140.07V83.312Z" fill="white"/>
<defs>
<filter id="filter0_i_28_813" x="0" y="0" width="187" height="187" filterUnits="userSpaceOnUse" color-interpolation-filters="sRGB">
<feFlood flood-opacity="0" result="BackgroundImageFix"/>
<feBlend mode="normal" in="SourceGraphic" in2="BackgroundImageFix" result="shape"/>
<feColorMatrix in="SourceAlpha" type="matrix" values="0 0 0 0 0 0 0 0 0 0 0 0 0 0 0 0 0 0 127 0" result="hardAlpha"/>
<feOffset dx="17" dy="17"/>
<feGaussianBlur stdDeviation="9.5"/>
<feComposite in2="hardAlpha" operator="arithmetic" k2="-1" k3="1"/>
<feColorMatrix type="matrix" values="0 0 0 0 0 0 0 0 0 0 0 0 0 0 0 0 0 0 0.25 0"/>
<feBlend mode="normal" in2="shape" result="effect1_innerShadow_28_813"/>
</filter>
<radialGradient id="paint0_radial_28_813" cx="0" cy="0" r="1" gradientUnits="userSpaceOnUse" gradientTransform="translate(85 85) rotate(90) scale(85)">
<stop stop-color="#FF2E2E" stop-opacity="0.52"/>
<stop offset="1" stop-color="#BC0101"/>
</radialGradient>
</defs>
</svg>
