<svg width="170" height="170" viewBox="0 0 170 170" fill="none" xmlns="http://www.w3.org/2000/svg">
<g filter="url(#filter0_i_28_820)">
<circle cx="85" cy="85" r="85" fill="url(#paint0_linear_28_820)"/>
</g>
<path d="M24.8952 54H28.4352L23.5752 61.7V68H20.5752V61.7L15.7152 54H19.2552L22.0752 58.44L24.8952 54ZM32.2387 68.26C31.3187 68.26 30.4787 68.0233 29.7187 67.55C28.9653 67.0767 28.362 66.4433 27.9087 65.65C27.462 64.85 27.2387 63.9667 27.2387 63C27.2387 62.2667 27.3687 61.5833 27.6287 60.95C27.8887 60.31 28.2453 59.75 28.6987 59.27C29.1587 58.7833 29.692 58.4033 30.2987 58.13C30.9053 57.8567 31.552 57.72 32.2387 57.72C33.1587 57.72 33.9953 57.9567 34.7487 58.43C35.5087 58.9033 36.112 59.54 36.5587 60.34C37.012 61.14 37.2387 62.0267 37.2387 63C37.2387 63.7267 37.1087 64.4067 36.8487 65.04C36.5887 65.6733 36.2287 66.2333 35.7687 66.72C35.3153 67.2 34.7853 67.5767 34.1787 67.85C33.5787 68.1233 32.932 68.26 32.2387 68.26ZM32.2387 65.26C32.6187 65.26 32.9587 65.1567 33.2587 64.95C33.5653 64.7433 33.8053 64.47 33.9787 64.13C34.152 63.7833 34.2387 63.4067 34.2387 63C34.2387 62.58 34.1453 62.1967 33.9587 61.85C33.7787 61.5033 33.5353 61.23 33.2287 61.03C32.9287 60.8233 32.5987 60.72 32.2387 60.72C31.8653 60.72 31.5253 60.8267 31.2187 61.04C30.9187 61.2467 30.6787 61.5233 30.4987 61.87C30.3253 62.2167 30.2387 62.5933 30.2387 63C30.2387 63.4267 30.3287 63.81 30.5087 64.15C30.6953 64.49 30.9387 64.76 31.2387 64.96C31.5453 65.16 31.8787 65.26 32.2387 65.26ZM38.0441 64.37V58H41.0441V63.53C41.0441 63.8433 41.1208 64.13 41.2741 64.39C41.4275 64.6433 41.6308 64.8467 41.8841 65C42.1441 65.1467 42.4275 65.22 42.7341 65.22C43.0475 65.22 43.3308 65.1467 43.5841 65C43.8441 64.8467 44.0475 64.6433 44.1941 64.39C44.3475 64.13 44.4241 63.8433 44.4241 63.53V58H47.4241L47.4341 68H44.4341L44.4241 67.35C44.0908 67.6367 43.7108 67.86 43.2841 68.02C42.8575 68.18 42.4075 68.26 41.9341 68.26C41.2208 68.26 40.5675 68.0867 39.9741 67.74C39.3875 67.3867 38.9175 66.9167 38.5641 66.33C38.2175 65.7433 38.0441 65.09 38.0441 64.37ZM63.6349 61.61V68H60.6349V62.45C60.6349 62.1367 60.5583 61.8533 60.4049 61.6C60.2516 61.34 60.0483 61.1367 59.7949 60.99C59.5416 60.8367 59.2583 60.76 58.9449 60.76C58.6316 60.76 58.3449 60.8367 58.0849 60.99C57.8316 61.1367 57.6283 61.34 57.4749 61.6C57.3283 61.8533 57.2549 62.1367 57.2549 62.45V68H54.2549L54.2449 53H57.2449L57.2549 58.63C57.5883 58.3433 57.9683 58.12 58.3949 57.96C58.8216 57.8 59.2716 57.72 59.7449 57.72C60.4649 57.72 61.1183 57.8967 61.7049 58.25C62.2916 58.5967 62.7583 59.0633 63.1049 59.65C63.4583 60.2367 63.6349 60.89 63.6349 61.61ZM72.6163 58H75.6163V68H72.6063L72.4663 67.1C72.2197 67.4467 71.9063 67.7267 71.5263 67.94C71.153 68.1533 70.7163 68.26 70.2163 68.26C69.4697 68.26 68.7697 68.12 68.1163 67.84C67.4697 67.56 66.8997 67.1733 66.4063 66.68C65.913 66.18 65.5263 65.6067 65.2463 64.96C64.973 64.3067 64.8363 63.6067 64.8363 62.86C64.8363 62.1467 64.9663 61.48 65.2263 60.86C65.4863 60.24 65.8497 59.6967 66.3163 59.23C66.7897 58.7567 67.333 58.3867 67.9463 58.12C68.5663 57.8533 69.2297 57.72 69.9363 57.72C70.5097 57.72 71.0297 57.84 71.4963 58.08C71.9697 58.3133 72.3897 58.6067 72.7563 58.96L72.6163 58ZM70.1363 65.38C70.5497 65.38 70.9263 65.2733 71.2663 65.06C71.6063 64.8467 71.8763 64.56 72.0763 64.2C72.2763 63.84 72.3763 63.44 72.3763 63C72.3763 62.56 72.2763 62.16 72.0763 61.8C71.8763 61.44 71.6063 61.1533 71.2663 60.94C70.9263 60.7267 70.5497 60.62 70.1363 60.62C69.723 60.62 69.3463 60.7267 69.0063 60.94C68.673 61.1533 68.4063 61.44 68.2063 61.8C68.013 62.16 67.9163 62.56 67.9163 63C67.9163 63.44 68.0163 63.84 68.2163 64.2C68.4163 64.56 68.683 64.8467 69.0163 65.06C69.3563 65.2733 69.7297 65.38 70.1363 65.38ZM83.9579 68H80.0779L76.4379 58H79.6379L82.0179 64.56L84.3979 58H87.5979L83.9579 68ZM93.0004 68.26C92.0804 68.26 91.2404 68.0233 90.4804 67.55C89.7271 67.0767 89.1237 66.44 88.6704 65.64C88.2237 64.84 88.0004 63.9567 88.0004 62.99C88.0004 62.2633 88.1304 61.5833 88.3904 60.95C88.6504 60.31 89.0071 59.75 89.4604 59.27C89.9204 58.7833 90.4537 58.4033 91.0604 58.13C91.6671 57.8567 92.3137 57.72 93.0004 57.72C93.8004 57.72 94.5304 57.8967 95.1904 58.25C95.8571 58.5967 96.4171 59.07 96.8704 59.67C97.3304 60.2633 97.6571 60.9333 97.8504 61.68C98.0437 62.4267 98.0637 63.1967 97.9104 63.99H91.2404C91.3337 64.2233 91.4571 64.4367 91.6104 64.63C91.7704 64.8167 91.9637 64.9667 92.1904 65.08C92.4237 65.1933 92.6937 65.2533 93.0004 65.26C93.2937 65.2667 93.5637 65.2033 93.8104 65.07C94.0637 64.9367 94.2837 64.7567 94.4704 64.53L97.5304 65.24C97.1237 66.1267 96.5171 66.8533 95.7104 67.42C94.9037 67.98 94.0004 68.26 93.0004 68.26ZM91.1304 61.79H94.8804C94.7871 61.5033 94.6471 61.25 94.4604 61.03C94.2737 60.81 94.0537 60.6367 93.8004 60.51C93.5537 60.3833 93.2871 60.32 93.0004 60.32C92.7204 60.32 92.4537 60.3833 92.2004 60.51C91.9537 60.6367 91.7371 60.81 91.5504 61.03C91.3704 61.25 91.2304 61.5033 91.1304 61.79ZM110.116 57.72C111.09 57.72 111.976 57.9567 112.776 58.43C113.576 58.9033 114.213 59.54 114.686 60.34C115.16 61.1333 115.396 62.0133 115.396 62.98C115.396 63.7067 115.26 64.39 114.986 65.03C114.713 65.67 114.333 66.2333 113.846 66.72C113.366 67.2 112.806 67.5767 112.166 67.85C111.533 68.1233 110.85 68.26 110.116 68.26C109.59 68.26 109.116 68.1467 108.696 67.92C108.276 67.6933 107.91 67.4067 107.596 67.06V68H104.596V53H107.596V58.92C107.91 58.5667 108.276 58.28 108.696 58.06C109.116 57.8333 109.59 57.72 110.116 57.72ZM110.076 65.36C110.49 65.36 110.866 65.2533 111.206 65.04C111.546 64.8267 111.816 64.54 112.016 64.18C112.216 63.82 112.316 63.42 112.316 62.98C112.316 62.5467 112.216 62.15 112.016 61.79C111.816 61.43 111.546 61.1433 111.206 60.93C110.866 60.71 110.49 60.6 110.076 60.6C109.67 60.6 109.296 60.71 108.956 60.93C108.623 61.1433 108.356 61.43 108.156 61.79C107.956 62.15 107.856 62.5467 107.856 62.98C107.856 63.42 107.956 63.82 108.156 64.18C108.356 64.54 108.623 64.8267 108.956 65.04C109.296 65.2533 109.67 65.36 110.076 65.36ZM121.399 68.26C120.479 68.26 119.639 68.0233 118.879 67.55C118.125 67.0767 117.522 66.44 117.069 65.64C116.622 64.84 116.399 63.9567 116.399 62.99C116.399 62.2633 116.529 61.5833 116.789 60.95C117.049 60.31 117.405 59.75 117.859 59.27C118.319 58.7833 118.852 58.4033 119.459 58.13C120.065 57.8567 120.712 57.72 121.399 57.72C122.199 57.72 122.929 57.8967 123.589 58.25C124.255 58.5967 124.815 59.07 125.269 59.67C125.729 60.2633 126.055 60.9333 126.249 61.68C126.442 62.4267 126.462 63.1967 126.309 63.99H119.639C119.732 64.2233 119.855 64.4367 120.009 64.63C120.169 64.8167 120.362 64.9667 120.589 65.08C120.822 65.1933 121.092 65.2533 121.399 65.26C121.692 65.2667 121.962 65.2033 122.209 65.07C122.462 64.9367 122.682 64.7567 122.869 64.53L125.929 65.24C125.522 66.1267 124.915 66.8533 124.109 67.42C123.302 67.98 122.399 68.26 121.399 68.26ZM119.529 61.79H123.279C123.185 61.5033 123.045 61.25 122.859 61.03C122.672 60.81 122.452 60.6367 122.199 60.51C121.952 60.3833 121.685 60.32 121.399 60.32C121.119 60.32 120.852 60.3833 120.599 60.51C120.352 60.6367 120.135 60.81 119.949 61.03C119.769 61.25 119.629 61.5033 119.529 61.79ZM132.395 68.26C131.475 68.26 130.635 68.0233 129.875 67.55C129.122 67.0767 128.518 66.44 128.065 65.64C127.618 64.84 127.395 63.9567 127.395 62.99C127.395 62.2633 127.525 61.5833 127.785 60.95C128.045 60.31 128.402 59.75 128.855 59.27C129.315 58.7833 129.848 58.4033 130.455 58.13C131.062 57.8567 131.708 57.72 132.395 57.72C133.195 57.72 133.925 57.8967 134.585 58.25C135.252 58.5967 135.812 59.07 136.265 59.67C136.725 60.2633 137.052 60.9333 137.245 61.68C137.438 62.4267 137.458 63.1967 137.305 63.99H130.635C130.728 64.2233 130.852 64.4367 131.005 64.63C131.165 64.8167 131.358 64.9667 131.585 65.08C131.818 65.1933 132.088 65.2533 132.395 65.26C132.688 65.2667 132.958 65.2033 133.205 65.07C133.458 64.9367 133.678 64.7567 133.865 64.53L136.925 65.24C136.518 66.1267 135.912 66.8533 135.105 67.42C134.298 67.98 133.395 68.26 132.395 68.26ZM130.525 61.79H134.275C134.182 61.5033 134.042 61.25 133.855 61.03C133.668 60.81 133.448 60.6367 133.195 60.51C132.948 60.3833 132.682 60.32 132.395 60.32C132.115 60.32 131.848 60.3833 131.595 60.51C131.348 60.6367 131.132 60.81 130.945 61.03C130.765 61.25 130.625 61.5033 130.525 61.79ZM148.283 61.61V68H145.283V62.45C145.283 62.1367 145.207 61.8533 145.053 61.6C144.9 61.34 144.697 61.1367 144.443 60.99C144.19 60.8367 143.907 60.76 143.593 60.76C143.28 60.76 142.993 60.8367 142.733 60.99C142.48 61.1367 142.277 61.34 142.123 61.6C141.977 61.8533 141.903 62.1367 141.903 62.45V68H138.903L138.893 58H141.893L141.903 58.63C142.237 58.3433 142.617 58.12 143.043 57.96C143.47 57.8 143.92 57.72 144.393 57.72C145.113 57.72 145.767 57.8967 146.353 58.25C146.94 58.5967 147.407 59.0633 147.753 59.65C148.107 60.2367 148.283 60.89 148.283 61.61ZM33.5179 92.26C32.5712 92.26 31.6812 92.0733 30.8479 91.7C30.0146 91.32 29.2812 90.7967 28.6479 90.13C28.0212 89.4633 27.5279 88.6933 27.1679 87.82C26.8146 86.94 26.6379 86 26.6379 85C26.6379 83.9933 26.8146 83.0533 27.1679 82.18C27.5279 81.3 28.0212 80.53 28.6479 79.87C29.2812 79.2033 30.0146 78.6833 30.8479 78.31C31.6812 77.93 32.5712 77.74 33.5179 77.74C34.6512 77.74 35.6946 78.0033 36.6479 78.53C37.6012 79.05 38.3912 79.7467 39.0179 80.62L36.3379 82.06C35.9912 81.66 35.5746 81.34 35.0879 81.1C34.6012 80.86 34.0779 80.74 33.5179 80.74C32.9846 80.74 32.4812 80.85 32.0079 81.07C31.5412 81.29 31.1279 81.5967 30.7679 81.99C30.4146 82.3767 30.1379 82.8267 29.9379 83.34C29.7379 83.8533 29.6379 84.4067 29.6379 85C29.6379 85.5867 29.7379 86.1367 29.9379 86.65C30.1379 87.1633 30.4146 87.6167 30.7679 88.01C31.1279 88.3967 31.5412 88.7033 32.0079 88.93C32.4812 89.15 32.9846 89.26 33.5179 89.26C34.0779 89.26 34.6012 89.14 35.0879 88.9C35.5746 88.6533 35.9912 88.3267 36.3379 87.92L39.0179 89.38C38.3912 90.2467 37.6012 90.9433 36.6479 91.47C35.6946 91.9967 34.6512 92.26 33.5179 92.26ZM50.1974 85.61V92H47.1974V86.45C47.1974 86.1367 47.1208 85.8533 46.9674 85.6C46.8141 85.34 46.6108 85.1367 46.3574 84.99C46.1041 84.8367 45.8208 84.76 45.5074 84.76C45.1941 84.76 44.9074 84.8367 44.6474 84.99C44.3941 85.1367 44.1908 85.34 44.0374 85.6C43.8908 85.8533 43.8174 86.1367 43.8174 86.45V92H40.8174L40.8074 77H43.8074L43.8174 82.63C44.1508 82.3433 44.5308 82.12 44.9574 81.96C45.3841 81.8 45.8341 81.72 46.3074 81.72C47.0274 81.72 47.6808 81.8967 48.2674 82.25C48.8541 82.5967 49.3208 83.0633 49.6674 83.65C50.0208 84.2367 50.1974 84.89 50.1974 85.61ZM56.3988 92.26C55.4788 92.26 54.6388 92.0233 53.8788 91.55C53.1255 91.0767 52.5222 90.44 52.0688 89.64C51.6222 88.84 51.3988 87.9567 51.3988 86.99C51.3988 86.2633 51.5288 85.5833 51.7888 84.95C52.0488 84.31 52.4055 83.75 52.8588 83.27C53.3188 82.7833 53.8522 82.4033 54.4588 82.13C55.0655 81.8567 55.7122 81.72 56.3988 81.72C57.1988 81.72 57.9288 81.8967 58.5888 82.25C59.2555 82.5967 59.8155 83.07 60.2688 83.67C60.7288 84.2633 61.0555 84.9333 61.2488 85.68C61.4422 86.4267 61.4622 87.1967 61.3088 87.99H54.6388C54.7322 88.2233 54.8555 88.4367 55.0088 88.63C55.1688 88.8167 55.3622 88.9667 55.5888 89.08C55.8222 89.1933 56.0922 89.2533 56.3988 89.26C56.6922 89.2667 56.9622 89.2033 57.2088 89.07C57.4622 88.9367 57.6822 88.7567 57.8688 88.53L60.9288 89.24C60.5222 90.1267 59.9155 90.8533 59.1088 91.42C58.3022 91.98 57.3988 92.26 56.3988 92.26ZM54.5288 85.79H58.2788C58.1855 85.5033 58.0455 85.25 57.8588 85.03C57.6722 84.81 57.4522 84.6367 57.1988 84.51C56.9522 84.3833 56.6855 84.32 56.3988 84.32C56.1188 84.32 55.8522 84.3833 55.5988 84.51C55.3522 84.6367 55.1355 84.81 54.9488 85.03C54.7688 85.25 54.6288 85.5033 54.5288 85.79ZM68.6949 88.72L71.3949 90.18C70.9349 90.8067 70.3583 91.31 69.6649 91.69C68.9716 92.07 68.2149 92.26 67.3949 92.26C66.4749 92.26 65.6349 92.0233 64.8749 91.55C64.1216 91.0767 63.5183 90.4433 63.0649 89.65C62.6183 88.85 62.3949 87.9667 62.3949 87C62.3949 86.2667 62.5249 85.5833 62.7849 84.95C63.0449 84.31 63.4016 83.75 63.8549 83.27C64.3149 82.7833 64.8483 82.4033 65.4549 82.13C66.0616 81.8567 66.7083 81.72 67.3949 81.72C68.2149 81.72 68.9716 81.91 69.6649 82.29C70.3583 82.67 70.9349 83.18 71.3949 83.82L68.6949 85.28C68.5149 85.1 68.3116 84.9633 68.0849 84.87C67.8649 84.77 67.6349 84.72 67.3949 84.72C67.0149 84.72 66.6749 84.8267 66.3749 85.04C66.0749 85.2533 65.8349 85.5333 65.6549 85.88C65.4816 86.2267 65.3949 86.6 65.3949 87C65.3949 87.3933 65.4816 87.7633 65.6549 88.11C65.8349 88.45 66.0749 88.7267 66.3749 88.94C66.6749 89.1533 67.0149 89.26 67.3949 89.26C67.6349 89.26 67.8649 89.2133 68.0849 89.12C68.3116 89.02 68.5149 88.8867 68.6949 88.72ZM82.3201 92H78.8601L76.8601 88.56L75.7801 89.84V92H72.7801V77H75.7801V85.18L78.4401 82H82.3601L78.9201 86.12L82.3201 92ZM87.4535 92.26C86.5335 92.26 85.6935 92.0233 84.9335 91.55C84.1802 91.0767 83.5768 90.44 83.1235 89.64C82.6768 88.84 82.4535 87.9567 82.4535 86.99C82.4535 86.2633 82.5835 85.5833 82.8435 84.95C83.1035 84.31 83.4602 83.75 83.9135 83.27C84.3735 82.7833 84.9068 82.4033 85.5135 82.13C86.1202 81.8567 86.7668 81.72 87.4535 81.72C88.2535 81.72 88.9835 81.8967 89.6435 82.25C90.3102 82.5967 90.8702 83.07 91.3235 83.67C91.7835 84.2633 92.1102 84.9333 92.3035 85.68C92.4968 86.4267 92.5168 87.1967 92.3635 87.99H85.6935C85.7868 88.2233 85.9102 88.4367 86.0635 88.63C86.2235 88.8167 86.4168 88.9667 86.6435 89.08C86.8768 89.1933 87.1468 89.2533 87.4535 89.26C87.7468 89.2667 88.0168 89.2033 88.2635 89.07C88.5168 88.9367 88.7368 88.7567 88.9235 88.53L91.9835 89.24C91.5768 90.1267 90.9702 90.8533 90.1635 91.42C89.3568 91.98 88.4535 92.26 87.4535 92.26ZM85.5835 85.79H89.3335C89.2402 85.5033 89.1002 85.25 88.9135 85.03C88.7268 84.81 88.5068 84.6367 88.2535 84.51C88.0068 84.3833 87.7402 84.32 87.4535 84.32C87.1735 84.32 86.9068 84.3833 86.6535 84.51C86.4068 84.6367 86.1902 84.81 86.0035 85.03C85.8235 85.25 85.6835 85.5033 85.5835 85.79ZM101.25 77H104.25V92H101.25V91.08C100.943 91.4267 100.576 91.71 100.15 91.93C99.7296 92.15 99.2496 92.26 98.7096 92.26C97.9829 92.26 97.3029 92.1233 96.6696 91.85C96.0363 91.5767 95.4763 91.2 94.9896 90.72C94.5096 90.2333 94.1329 89.6733 93.8596 89.04C93.5863 88.4067 93.4496 87.7267 93.4496 87C93.4496 86.2733 93.5863 85.5933 93.8596 84.96C94.1329 84.3267 94.5096 83.77 94.9896 83.29C95.4763 82.8033 96.0363 82.4233 96.6696 82.15C97.3029 81.8767 97.9829 81.74 98.7096 81.74C99.2496 81.74 99.7296 81.85 100.15 82.07C100.576 82.2833 100.943 82.5667 101.25 82.92V77ZM98.7496 89.38C99.1629 89.38 99.5396 89.2733 99.8796 89.06C100.22 88.8467 100.49 88.56 100.69 88.2C100.89 87.84 100.99 87.44 100.99 87C100.99 86.56 100.89 86.16 100.69 85.8C100.49 85.44 100.22 85.1533 99.8796 84.94C99.5396 84.7267 99.1629 84.62 98.7496 84.62C98.3363 84.62 97.9596 84.7267 97.6196 84.94C97.2863 85.1533 97.0196 85.44 96.8196 85.8C96.6263 86.16 96.5296 86.56 96.5296 87C96.5296 87.44 96.6296 87.84 96.8296 88.2C97.0296 88.56 97.2963 88.8467 97.6296 89.06C97.9696 89.2733 98.3429 89.38 98.7496 89.38ZM106.647 84.5H113.047V87.5H106.647V84.5ZM119.856 92.26C118.936 92.26 118.096 92.0233 117.336 91.55C116.583 91.0767 115.979 90.4433 115.526 89.65C115.079 88.85 114.856 87.9667 114.856 87C114.856 86.2667 114.986 85.5833 115.246 84.95C115.506 84.31 115.863 83.75 116.316 83.27C116.776 82.7833 117.309 82.4033 117.916 82.13C118.523 81.8567 119.169 81.72 119.856 81.72C120.776 81.72 121.613 81.9567 122.366 82.43C123.126 82.9033 123.729 83.54 124.176 84.34C124.629 85.14 124.856 86.0267 124.856 87C124.856 87.7267 124.726 88.4067 124.466 89.04C124.206 89.6733 123.846 90.2333 123.386 90.72C122.933 91.2 122.403 91.5767 121.796 91.85C121.196 92.1233 120.549 92.26 119.856 92.26ZM119.856 89.26C120.236 89.26 120.576 89.1567 120.876 88.95C121.183 88.7433 121.423 88.47 121.596 88.13C121.769 87.7833 121.856 87.4067 121.856 87C121.856 86.58 121.763 86.1967 121.576 85.85C121.396 85.5033 121.153 85.23 120.846 85.03C120.546 84.8233 120.216 84.72 119.856 84.72C119.483 84.72 119.143 84.8267 118.836 85.04C118.536 85.2467 118.296 85.5233 118.116 85.87C117.943 86.2167 117.856 86.5933 117.856 87C117.856 87.4267 117.946 87.81 118.126 88.15C118.313 88.49 118.556 88.76 118.856 88.96C119.163 89.16 119.496 89.26 119.856 89.26ZM125.661 88.37V82H128.661V87.53C128.661 87.8433 128.738 88.13 128.891 88.39C129.045 88.6433 129.248 88.8467 129.501 89C129.761 89.1467 130.045 89.22 130.351 89.22C130.665 89.22 130.948 89.1467 131.201 89C131.461 88.8467 131.665 88.6433 131.811 88.39C131.965 88.13 132.041 87.8433 132.041 87.53V82H135.041L135.051 92H132.051L132.041 91.35C131.708 91.6367 131.328 91.86 130.901 92.02C130.475 92.18 130.025 92.26 129.551 92.26C128.838 92.26 128.185 92.0867 127.591 91.74C127.005 91.3867 126.535 90.9167 126.181 90.33C125.835 89.7433 125.661 89.09 125.661 88.37ZM142.557 85H140.857V92H137.857V85H136.557V82H137.857V78.86H140.857V82H142.557V85ZM32.4899 116.26C31.7033 116.26 30.9499 116.137 30.2299 115.89C29.5099 115.637 28.8799 115.277 28.3399 114.81C27.7999 114.337 27.4099 113.773 27.1699 113.12L29.9899 112.08C30.0566 112.273 30.2033 112.46 30.4299 112.64C30.6633 112.82 30.9566 112.97 31.3099 113.09C31.6633 113.203 32.0566 113.26 32.4899 113.26C32.8899 113.26 33.2666 113.203 33.6199 113.09C33.9733 112.97 34.2599 112.807 34.4799 112.6C34.6999 112.393 34.8099 112.153 34.8099 111.88C34.8099 111.6 34.6933 111.37 34.4599 111.19C34.2333 111.003 33.9399 110.857 33.5799 110.75C33.2266 110.637 32.8633 110.553 32.4899 110.5C31.4766 110.353 30.5666 110.113 29.7599 109.78C28.9599 109.44 28.3266 108.973 27.8599 108.38C27.3999 107.787 27.1699 107.033 27.1699 106.12C27.1699 105.247 27.4166 104.483 27.9099 103.83C28.4033 103.17 29.0533 102.657 29.8599 102.29C30.6733 101.923 31.5499 101.74 32.4899 101.74C33.2766 101.74 34.0299 101.867 34.7499 102.12C35.4766 102.367 36.1099 102.727 36.6499 103.2C37.1899 103.673 37.5766 104.24 37.8099 104.9L34.9899 105.92C34.9233 105.727 34.7733 105.543 34.5399 105.37C34.3133 105.19 34.0233 105.043 33.6699 104.93C33.3166 104.817 32.9233 104.76 32.4899 104.76C32.1033 104.753 31.7333 104.81 31.3799 104.93C31.0266 105.05 30.7366 105.213 30.5099 105.42C30.2833 105.627 30.1699 105.86 30.1699 106.12C30.1699 106.48 30.2766 106.75 30.4899 106.93C30.7033 107.103 30.9833 107.227 31.3299 107.3C31.6833 107.373 32.0699 107.44 32.4899 107.5C33.4499 107.64 34.3333 107.89 35.1399 108.25C35.9466 108.61 36.5933 109.09 37.0799 109.69C37.5666 110.29 37.8099 111.02 37.8099 111.88C37.8099 112.753 37.5633 113.52 37.0699 114.18C36.5833 114.833 35.9366 115.343 35.1299 115.71C34.3233 116.077 33.4433 116.26 32.4899 116.26ZM39.3137 112.37V106H42.3137V111.53C42.3137 111.843 42.3903 112.13 42.5437 112.39C42.697 112.643 42.9003 112.847 43.1537 113C43.4137 113.147 43.697 113.22 44.0037 113.22C44.317 113.22 44.6003 113.147 44.8537 113C45.1137 112.847 45.317 112.643 45.4637 112.39C45.617 112.13 45.6937 111.843 45.6937 111.53V106H48.6937L48.7037 116H45.7037L45.6937 115.35C45.3603 115.637 44.9803 115.86 44.5537 116.02C44.127 116.18 43.677 116.26 43.2037 116.26C42.4903 116.26 41.837 116.087 41.2437 115.74C40.657 115.387 40.187 114.917 39.8337 114.33C39.487 113.743 39.3137 113.09 39.3137 112.37ZM56.1949 112.72L58.8949 114.18C58.4349 114.807 57.8583 115.31 57.1649 115.69C56.4716 116.07 55.7149 116.26 54.8949 116.26C53.9749 116.26 53.1349 116.023 52.3749 115.55C51.6216 115.077 51.0183 114.443 50.5649 113.65C50.1183 112.85 49.8949 111.967 49.8949 111C49.8949 110.267 50.0249 109.583 50.2849 108.95C50.5449 108.31 50.9016 107.75 51.3549 107.27C51.8149 106.783 52.3483 106.403 52.9549 106.13C53.5616 105.857 54.2083 105.72 54.8949 105.72C55.7149 105.72 56.4716 105.91 57.1649 106.29C57.8583 106.67 58.4349 107.18 58.8949 107.82L56.1949 109.28C56.0149 109.1 55.8116 108.963 55.5849 108.87C55.3649 108.77 55.1349 108.72 54.8949 108.72C54.5149 108.72 54.1749 108.827 53.8749 109.04C53.5749 109.253 53.3349 109.533 53.1549 109.88C52.9816 110.227 52.8949 110.6 52.8949 111C52.8949 111.393 52.9816 111.763 53.1549 112.11C53.3349 112.45 53.5749 112.727 53.8749 112.94C54.1749 113.153 54.5149 113.26 54.8949 113.26C55.1349 113.26 55.3649 113.213 55.5849 113.12C55.8116 113.02 56.0149 112.887 56.1949 112.72ZM65.9801 112.72L68.6801 114.18C68.2201 114.807 67.6434 115.31 66.9501 115.69C66.2567 116.07 65.5001 116.26 64.6801 116.26C63.7601 116.26 62.9201 116.023 62.1601 115.55C61.4067 115.077 60.8034 114.443 60.3501 113.65C59.9034 112.85 59.6801 111.967 59.6801 111C59.6801 110.267 59.8101 109.583 60.0701 108.95C60.3301 108.31 60.6867 107.75 61.1401 107.27C61.6001 106.783 62.1334 106.403 62.7401 106.13C63.3467 105.857 63.9934 105.72 64.6801 105.72C65.5001 105.72 66.2567 105.91 66.9501 106.29C67.6434 106.67 68.2201 107.18 68.6801 107.82L65.9801 109.28C65.8001 109.1 65.5967 108.963 65.3701 108.87C65.1501 108.77 64.9201 108.72 64.6801 108.72C64.3001 108.72 63.9601 108.827 63.6601 109.04C63.3601 109.253 63.1201 109.533 62.9401 109.88C62.7667 110.227 62.6801 110.6 62.6801 111C62.6801 111.393 62.7667 111.763 62.9401 112.11C63.1201 112.45 63.3601 112.727 63.6601 112.94C63.9601 113.153 64.3001 113.26 64.6801 113.26C64.9201 113.26 65.1501 113.213 65.3701 113.12C65.5967 113.02 65.8001 112.887 65.9801 112.72ZM74.4652 116.26C73.5452 116.26 72.7052 116.023 71.9452 115.55C71.1919 115.077 70.5886 114.44 70.1352 113.64C69.6886 112.84 69.4652 111.957 69.4652 110.99C69.4652 110.263 69.5952 109.583 69.8552 108.95C70.1152 108.31 70.4719 107.75 70.9252 107.27C71.3852 106.783 71.9186 106.403 72.5252 106.13C73.1319 105.857 73.7786 105.72 74.4652 105.72C75.2652 105.72 75.9952 105.897 76.6552 106.25C77.3219 106.597 77.8819 107.07 78.3352 107.67C78.7952 108.263 79.1219 108.933 79.3152 109.68C79.5086 110.427 79.5286 111.197 79.3752 111.99H72.7052C72.7986 112.223 72.9219 112.437 73.0752 112.63C73.2352 112.817 73.4286 112.967 73.6552 113.08C73.8886 113.193 74.1586 113.253 74.4652 113.26C74.7586 113.267 75.0286 113.203 75.2752 113.07C75.5286 112.937 75.7486 112.757 75.9352 112.53L78.9952 113.24C78.5886 114.127 77.9819 114.853 77.1752 115.42C76.3686 115.98 75.4652 116.26 74.4652 116.26ZM72.5952 109.79H76.3452C76.2519 109.503 76.1119 109.25 75.9252 109.03C75.7386 108.81 75.5186 108.637 75.2652 108.51C75.0186 108.383 74.7519 108.32 74.4652 108.32C74.1852 108.32 73.9186 108.383 73.6652 108.51C73.4186 108.637 73.2019 108.81 73.0152 109.03C72.8352 109.25 72.6952 109.503 72.5952 109.79ZM83.9218 116.18C83.4151 116.133 82.9285 116.023 82.4618 115.85C81.9951 115.677 81.5785 115.44 81.2118 115.14C80.8451 114.84 80.5551 114.473 80.3418 114.04L82.8618 112.96C82.9285 113.033 83.0218 113.127 83.1418 113.24C83.2618 113.347 83.4118 113.443 83.5918 113.53C83.7785 113.617 84.0018 113.66 84.2618 113.66C84.4351 113.66 84.6018 113.643 84.7618 113.61C84.9285 113.57 85.0618 113.503 85.1618 113.41C85.2685 113.317 85.3218 113.187 85.3218 113.02C85.3218 112.833 85.2518 112.693 85.1118 112.6C84.9785 112.5 84.8151 112.43 84.6218 112.39C84.4285 112.343 84.2485 112.307 84.0818 112.28C83.4885 112.187 82.9185 112 82.3718 111.72C81.8318 111.433 81.3885 111.063 81.0418 110.61C80.6951 110.15 80.5218 109.613 80.5218 109C80.5218 108.313 80.6985 107.72 81.0518 107.22C81.4051 106.72 81.8651 106.337 82.4318 106.07C83.0051 105.797 83.6218 105.66 84.2818 105.66C85.0618 105.66 85.7818 105.82 86.4418 106.14C87.1085 106.46 87.6551 106.92 88.0818 107.52L85.7218 108.92C85.6418 108.82 85.5418 108.72 85.4218 108.62C85.3085 108.513 85.1751 108.423 85.0218 108.35C84.8751 108.27 84.7151 108.22 84.5418 108.2C84.3085 108.18 84.0985 108.19 83.9118 108.23C83.7318 108.263 83.5885 108.337 83.4818 108.45C83.3751 108.557 83.3218 108.713 83.3218 108.92C83.3218 109.113 83.4151 109.253 83.6018 109.34C83.7885 109.427 83.9985 109.49 84.2318 109.53C84.4651 109.57 84.6551 109.613 84.8018 109.66C85.3751 109.847 85.9151 110.09 86.4218 110.39C86.9285 110.69 87.3351 111.053 87.6418 111.48C87.9551 111.907 88.1018 112.407 88.0818 112.98C88.0818 113.647 87.8818 114.233 87.4818 114.74C87.0818 115.247 86.5651 115.63 85.9318 115.89C85.2985 116.15 84.6285 116.247 83.9218 116.18ZM92.6523 116.18C92.1456 116.133 91.6589 116.023 91.1923 115.85C90.7256 115.677 90.3089 115.44 89.9423 115.14C89.5756 114.84 89.2856 114.473 89.0723 114.04L91.5923 112.96C91.6589 113.033 91.7523 113.127 91.8723 113.24C91.9923 113.347 92.1423 113.443 92.3223 113.53C92.5089 113.617 92.7323 113.66 92.9923 113.66C93.1656 113.66 93.3323 113.643 93.4923 113.61C93.6589 113.57 93.7923 113.503 93.8923 113.41C93.9989 113.317 94.0523 113.187 94.0523 113.02C94.0523 112.833 93.9823 112.693 93.8423 112.6C93.7089 112.5 93.5456 112.43 93.3523 112.39C93.1589 112.343 92.9789 112.307 92.8123 112.28C92.2189 112.187 91.6489 112 91.1023 111.72C90.5623 111.433 90.1189 111.063 89.7723 110.61C89.4256 110.15 89.2523 109.613 89.2523 109C89.2523 108.313 89.4289 107.72 89.7823 107.22C90.1356 106.72 90.5956 106.337 91.1623 106.07C91.7356 105.797 92.3523 105.66 93.0123 105.66C93.7923 105.66 94.5123 105.82 95.1723 106.14C95.8389 106.46 96.3856 106.92 96.8123 107.52L94.4523 108.92C94.3723 108.82 94.2723 108.72 94.1523 108.62C94.0389 108.513 93.9056 108.423 93.7523 108.35C93.6056 108.27 93.4456 108.22 93.2723 108.2C93.0389 108.18 92.8289 108.19 92.6423 108.23C92.4623 108.263 92.3189 108.337 92.2123 108.45C92.1056 108.557 92.0523 108.713 92.0523 108.92C92.0523 109.113 92.1456 109.253 92.3323 109.34C92.5189 109.427 92.7289 109.49 92.9623 109.53C93.1956 109.57 93.3856 109.613 93.5323 109.66C94.1056 109.847 94.6456 110.09 95.1523 110.39C95.6589 110.69 96.0656 111.053 96.3723 111.48C96.6856 111.907 96.8323 112.407 96.8123 112.98C96.8123 113.647 96.6123 114.233 96.2123 114.74C95.8123 115.247 95.2956 115.63 94.6623 115.89C94.0289 116.15 93.3589 116.247 92.6523 116.18ZM101.743 104.18V106H104.323V109H101.743V116H98.7427V109H97.8027V106H98.7427V104.18C98.7427 103.553 98.8961 102.983 99.2027 102.47C99.5161 101.95 99.9327 101.537 100.453 101.23C100.973 100.917 101.549 100.76 102.183 100.76C102.643 100.76 103.099 100.857 103.553 101.05C104.006 101.237 104.409 101.533 104.763 101.94L102.603 104.06C102.569 103.96 102.509 103.887 102.423 103.84C102.343 103.787 102.263 103.76 102.183 103.76C102.063 103.76 101.959 103.8 101.873 103.88C101.786 103.96 101.743 104.06 101.743 104.18ZM105.72 112.37V106H108.72V111.53C108.72 111.843 108.797 112.13 108.95 112.39C109.103 112.643 109.307 112.847 109.56 113C109.82 113.147 110.103 113.22 110.41 113.22C110.723 113.22 111.007 113.147 111.26 113C111.52 112.847 111.723 112.643 111.87 112.39C112.023 112.13 112.1 111.843 112.1 111.53V106H115.1L115.11 116H112.11L112.1 115.35C111.767 115.637 111.387 115.86 110.96 116.02C110.533 116.18 110.083 116.26 109.61 116.26C108.897 116.26 108.243 116.087 107.65 115.74C107.063 115.387 106.593 114.917 106.24 114.33C105.893 113.743 105.72 113.09 105.72 112.37ZM117.116 116V101H120.116V116H117.116ZM122.507 116V101H125.507V116H122.507ZM133.859 106H137.059L131.579 121H128.399L130.199 116L126.599 106H129.879L131.699 111.9L133.859 106ZM138.89 111.8V102H141.39V111.8H138.89ZM140.15 116.26C139.73 116.26 139.373 116.113 139.08 115.82C138.793 115.527 138.65 115.167 138.65 114.74C138.65 114.327 138.793 113.977 139.08 113.69C139.373 113.403 139.73 113.26 140.15 113.26C140.563 113.26 140.913 113.403 141.2 113.69C141.486 113.977 141.63 114.327 141.63 114.74C141.63 115.167 141.486 115.527 141.2 115.82C140.913 116.113 140.563 116.26 140.15 116.26Z" fill="white"/>
<defs>
<filter id="filter0_i_28_820" x="0" y="0" width="193" height="194" filterUnits="userSpaceOnUse" color-interpolation-filters="sRGB">
<feFlood flood-opacity="0" result="BackgroundImageFix"/>
<feBlend mode="normal" in="SourceGraphic" in2="BackgroundImageFix" result="shape"/>
<feColorMatrix in="SourceAlpha" type="matrix" values="0 0 0 0 0 0 0 0 0 0 0 0 0 0 0 0 0 0 127 0" result="hardAlpha"/>
<feOffset dx="23" dy="24"/>
<feGaussianBlur stdDeviation="20.4"/>
<feComposite in2="hardAlpha" operator="arithmetic" k2="-1" k3="1"/>
<feColorMatrix type="matrix" values="0 0 0 0 0 0 0 0 0 0 0 0 0 0 0 0 0 0 0.59 0"/>
<feBlend mode="normal" in2="shape" result="effect1_innerShadow_28_820"/>
</filter>
<linearGradient id="paint0_linear_28_820" x1="85" y1="0" x2="85" y2="170" gradientUnits="userSpaceOnUse">
<stop stop-color="#010E4A"/>
<stop offset="1" stop-color="#010E4A"/>
</linearGradient>
</defs>
</svg>
