<svg width="40" height="40" viewBox="0 0 40 40" fill="none" xmlns="http://www.w3.org/2000/svg">
<circle cx="20" cy="20" r="20" fill="#010E4A"/>
<path d="M12.6667 18.6213V22.75C12.6667 23.4793 12.9564 24.1788 13.4721 24.6945C13.9879 25.2103 14.6873 25.5 15.4167 25.5H24.5833C25.3127 25.5 26.0122 25.2103 26.5279 24.6945C27.0436 24.1788 27.3333 23.4793 27.3333 22.75V18.6213L20.3758 21.7527C20.2577 21.8058 20.1296 21.8333 20 21.8333C19.8704 21.8333 19.7423 21.8058 19.6242 21.7527L12.6667 18.6213ZM12.7345 16.6413L20 19.912L27.2655 16.6413C27.1275 16.0332 26.7868 15.49 26.2995 15.1009C25.8121 14.7118 25.207 14.4999 24.5833 14.5H15.4167C14.793 14.4999 14.1879 14.7118 13.7005 15.1009C13.2132 15.49 12.8725 16.0332 12.7345 16.6413Z" fill="white"/>
</svg>
