<svg width="275" height="238" viewBox="0 0 275 238" fill="none" xmlns="http://www.w3.org/2000/svg">
<g clip-path="url(#clip0_8_443)">
<path d="M216.972 19.6539C216.664 19.4479 216.351 19.2525 216.042 19.0535C207.116 13.3392 197.549 8.69687 187.538 5.22257L185.217 37.2757H170.501V0.543559C169.575 0.351709 168.641 0.170518 167.708 -1.52588e-05V37.2757H150.22C140.593 37.2757 131.36 33.4477 124.553 26.6337C117.746 19.8197 113.921 10.5779 113.921 0.941509C112.984 1.14402 112.054 1.3607 111.125 1.59163V37.2757H96.8811L94.6699 6.71118C84.382 10.6606 74.6152 15.8542 65.5867 22.1764C65.4305 22.283 65.2744 22.3931 65.1218 22.4997C64.3374 23.0504 63.5636 23.6117 62.7934 24.1802V146.463H104.771L104.029 136.178L99.9477 79.7065H182.146L178.065 136.178L177.323 146.463H218.836V20.8903C218.218 20.4711 217.597 20.059 216.972 19.6539ZM111.125 70.3805H99.2733L97.0834 40.0753H111.125V70.3805ZM167.708 70.3805H147.803V69.7801C147.803 69.4914 147.746 69.2056 147.636 68.939C147.526 68.6724 147.364 68.4302 147.16 68.2262C146.955 68.0223 146.713 67.8607 146.447 67.7505C146.18 67.6404 145.895 67.584 145.606 67.5844H136.953C136.665 67.5843 136.38 67.6411 136.113 67.7514C135.847 67.8616 135.605 68.0234 135.402 68.2273C135.198 68.4312 135.036 68.6733 134.926 68.9397C134.816 69.2061 134.759 69.4917 134.759 69.7801V70.3805H113.921V40.0753H167.708V70.3805ZM170.501 70.3805V40.0753H185.014L182.824 70.3805H170.501Z" fill="#F2F2F2"/>
<path d="M262.561 222.244L262.839 215.999C265.731 214.452 268.957 213.634 272.236 213.618C267.723 217.312 268.287 224.432 265.227 229.399C264.26 230.941 262.96 232.246 261.421 233.216C259.883 234.186 258.146 234.798 256.34 235.005L252.563 237.32C252.044 234.428 252.159 231.458 252.898 228.614C253.636 225.77 254.983 223.121 256.843 220.848C257.899 219.583 259.11 218.457 260.448 217.495C261.353 219.883 262.561 222.244 262.561 222.244Z" fill="#F2F2F2"/>
<path d="M59.9122 215.401L50.7974 212.639C49.602 207.777 49.6102 202.697 50.8213 197.84C54.5748 205.908 65.2997 207.755 71.4807 214.153C73.3933 216.163 74.8294 218.578 75.6827 221.219C76.536 223.861 76.7846 226.66 76.41 229.411L78.4051 235.87C73.9399 235.547 69.5977 234.26 65.6776 232.095C61.7574 229.931 58.3526 226.942 55.6977 223.334C54.2284 221.295 53.0214 219.079 52.1052 216.738C55.971 216.299 59.9122 215.401 59.9122 215.401Z" fill="#F2F2F2"/>
<path d="M255.468 236.299C255.467 236.488 255.392 236.669 255.259 236.803C255.193 236.869 255.115 236.921 255.029 236.956C254.943 236.992 254.851 237.01 254.759 237.009H251.905C251.812 237.01 251.719 236.991 251.633 236.956C251.547 236.92 251.468 236.868 251.402 236.802C251.336 236.736 251.284 236.657 251.248 236.571C251.213 236.485 251.195 236.392 251.195 236.299V149.917C251.195 148.012 250.556 146.467 249.772 146.463H35.9286C35.1406 146.467 34.5053 148.012 34.5017 149.917V235.769C34.5011 235.946 34.4351 236.116 34.3164 236.247C34.1977 236.377 34.0348 236.459 33.8593 236.476C33.2843 236.533 32.7093 236.583 32.1379 236.629C32.1237 236.629 32.1095 236.633 32.0953 236.633C31.7829 236.661 31.4706 236.682 31.1583 236.707H31.1547C30.9915 236.412 30.8353 236.11 30.6756 235.808C30.6244 235.706 30.5976 235.593 30.5975 235.478V145.436C30.5975 144.911 30.6188 144.381 30.6543 143.859C30.7049 143.142 30.7938 142.428 30.9205 141.72C31.5203 138.42 32.8761 136.185 34.4165 136.178H251.28C251.505 136.179 251.727 136.227 251.933 136.316C252.236 136.451 252.51 136.642 252.739 136.881C253.05 137.205 253.316 137.57 253.53 137.965C254.29 139.304 254.833 141.301 255.025 143.625C255.025 143.646 255.028 143.667 255.028 143.688C255.078 144.264 255.103 144.85 255.099 145.436L255.149 153.05L255.181 157.591L255.277 171.837L255.312 176.896L255.468 236.299Z" fill="#E6E6E6"/>
<path d="M274.342 237.891L176.469 238C176.357 238 176.25 237.955 176.171 237.876C176.092 237.796 176.048 237.689 176.048 237.577C176.048 237.465 176.092 237.358 176.171 237.278C176.25 237.199 176.357 237.154 176.469 237.154L274.342 237.045C274.453 237.045 274.561 237.09 274.64 237.169C274.719 237.248 274.763 237.356 274.763 237.468C274.763 237.58 274.719 237.687 274.64 237.766C274.561 237.846 274.453 237.89 274.342 237.891Z" fill="#CACACA"/>
<path d="M152.858 110.939H135.524C135.279 110.94 135.044 111.038 134.87 111.211C134.697 111.385 134.6 111.621 134.6 111.866V139.276H153.784V111.866C153.784 111.744 153.76 111.624 153.714 111.511C153.667 111.399 153.599 111.297 153.513 111.211C153.427 111.125 153.325 111.056 153.212 111.01C153.1 110.963 152.98 110.939 152.858 110.939ZM144.249 126.513C143.707 126.511 143.188 126.294 142.805 125.91C142.421 125.527 142.205 125.007 142.202 124.464V121.303C142.202 120.76 142.418 120.238 142.802 119.854C143.186 119.47 143.706 119.254 144.249 119.254C144.792 119.254 145.313 119.47 145.697 119.854C146.08 120.238 146.296 120.76 146.296 121.303V124.464C146.294 125.007 146.077 125.527 145.694 125.91C145.31 126.294 144.791 126.511 144.249 126.513Z" fill="#2F2E41"/>
<path d="M181.562 68.1636H107.465C106.828 68.1646 106.218 68.4182 105.768 68.8688C105.318 69.3194 105.064 69.9302 105.063 70.5674V120.617C105.064 121.255 105.317 121.866 105.767 122.316C106.218 122.767 106.828 123.02 107.465 123.021H181.562C182.199 123.02 182.809 122.767 183.259 122.316C183.71 121.866 183.963 121.255 183.964 120.617V70.5674C183.962 69.9302 183.709 69.3194 183.259 68.8688C182.809 68.4182 182.199 68.1646 181.562 68.1636Z" fill="#3F3D56"/>
<path d="M180.942 69.8994H108.083C107.742 69.9001 107.415 70.0362 107.174 70.2777C106.934 70.5192 106.798 70.8464 106.798 71.1876V119.997C106.799 120.338 106.934 120.664 107.175 120.905C107.416 121.146 107.742 121.282 108.083 121.282H180.942C181.283 121.282 181.609 121.146 181.85 120.905C182.09 120.664 182.226 120.338 182.227 119.997V71.1876C182.227 70.8464 182.091 70.5192 181.851 70.2777C181.61 70.0362 181.283 69.9001 180.942 69.8994Z" fill="white"/>
<path d="M134.541 138.399V141.044C134.541 141.181 134.596 141.312 134.692 141.409C134.789 141.506 134.92 141.56 135.057 141.561H153.327C153.464 141.56 153.595 141.505 153.691 141.408C153.788 141.312 153.843 141.181 153.843 141.044V138.399H134.541Z" fill="#3F3D56"/>
<path d="M166.752 142.481H123.404C123.285 142.481 123.168 142.454 123.061 142.403C122.954 142.352 122.86 142.278 122.785 142.186C122.71 142.093 122.657 141.986 122.629 141.87C122.601 141.755 122.599 141.634 122.624 141.518L123.296 138.321C123.335 138.142 123.433 137.981 123.575 137.866C123.717 137.751 123.894 137.688 124.077 137.687H166.079C166.262 137.688 166.439 137.751 166.581 137.866C166.723 137.981 166.821 138.142 166.859 138.321L167.532 141.518C167.556 141.634 167.555 141.755 167.527 141.87C167.499 141.986 167.446 142.093 167.371 142.186C167.296 142.278 167.202 142.352 167.095 142.403C166.987 142.454 166.87 142.481 166.752 142.481Z" fill="#2F2E41"/>
<path d="M125.546 138.263H124.558C124.462 138.263 124.384 138.34 124.384 138.436V138.891C124.384 138.987 124.462 139.064 124.558 139.064H125.546C125.642 139.064 125.72 138.987 125.72 138.891V138.436C125.72 138.34 125.642 138.263 125.546 138.263Z" fill="#3F3D56"/>
<path d="M128.216 138.263H127.228C127.132 138.263 127.055 138.34 127.055 138.436V138.891C127.055 138.987 127.132 139.064 127.228 139.064H128.216C128.312 139.064 128.39 138.987 128.39 138.891V138.436C128.39 138.34 128.312 138.263 128.216 138.263Z" fill="#3F3D56"/>
<path d="M130.887 138.263H129.898C129.802 138.263 129.725 138.34 129.725 138.436V138.891C129.725 138.987 129.802 139.064 129.898 139.064H130.887C130.982 139.064 131.06 138.987 131.06 138.891V138.436C131.06 138.34 130.982 138.263 130.887 138.263Z" fill="#3F3D56"/>
<path d="M133.557 138.263H132.568C132.472 138.263 132.395 138.34 132.395 138.436V138.891C132.395 138.987 132.472 139.064 132.568 139.064H133.557C133.652 139.064 133.73 138.987 133.73 138.891V138.436C133.73 138.34 133.652 138.263 133.557 138.263Z" fill="#3F3D56"/>
<path d="M136.227 138.263H135.238C135.143 138.263 135.065 138.34 135.065 138.436V138.891C135.065 138.987 135.143 139.064 135.238 139.064H136.227C136.322 139.064 136.4 138.987 136.4 138.891V138.436C136.4 138.34 136.322 138.263 136.227 138.263Z" fill="#3F3D56"/>
<path d="M138.897 138.263H137.908C137.813 138.263 137.735 138.34 137.735 138.436V138.891C137.735 138.987 137.813 139.064 137.908 139.064H138.897C138.993 139.064 139.07 138.987 139.07 138.891V138.436C139.07 138.34 138.993 138.263 138.897 138.263Z" fill="#3F3D56"/>
<path d="M141.567 138.263H140.578C140.483 138.263 140.405 138.34 140.405 138.436V138.891C140.405 138.987 140.483 139.064 140.578 139.064H141.567C141.663 139.064 141.74 138.987 141.74 138.891V138.436C141.74 138.34 141.663 138.263 141.567 138.263Z" fill="#3F3D56"/>
<path d="M144.237 138.263H143.249C143.153 138.263 143.075 138.34 143.075 138.436V138.891C143.075 138.987 143.153 139.064 143.249 139.064H144.237C144.333 139.064 144.41 138.987 144.41 138.891V138.436C144.41 138.34 144.333 138.263 144.237 138.263Z" fill="#3F3D56"/>
<path d="M146.907 138.263H145.919C145.823 138.263 145.745 138.34 145.745 138.436V138.891C145.745 138.987 145.823 139.064 145.919 139.064H146.907C147.003 139.064 147.081 138.987 147.081 138.891V138.436C147.081 138.34 147.003 138.263 146.907 138.263Z" fill="#3F3D56"/>
<path d="M149.577 138.263H148.589C148.493 138.263 148.416 138.34 148.416 138.436V138.891C148.416 138.987 148.493 139.064 148.589 139.064H149.577C149.673 139.064 149.751 138.987 149.751 138.891V138.436C149.751 138.34 149.673 138.263 149.577 138.263Z" fill="#3F3D56"/>
<path d="M152.247 138.263H151.259C151.163 138.263 151.086 138.34 151.086 138.436V138.891C151.086 138.987 151.163 139.064 151.259 139.064H152.247C152.343 139.064 152.421 138.987 152.421 138.891V138.436C152.421 138.34 152.343 138.263 152.247 138.263Z" fill="#3F3D56"/>
<path d="M154.918 138.263H153.929C153.833 138.263 153.756 138.34 153.756 138.436V138.891C153.756 138.987 153.833 139.064 153.929 139.064H154.918C155.013 139.064 155.091 138.987 155.091 138.891V138.436C155.091 138.34 155.013 138.263 154.918 138.263Z" fill="#3F3D56"/>
<path d="M157.588 138.263H156.599C156.504 138.263 156.426 138.34 156.426 138.436V138.891C156.426 138.987 156.504 139.064 156.599 139.064H157.588C157.683 139.064 157.761 138.987 157.761 138.891V138.436C157.761 138.34 157.683 138.263 157.588 138.263Z" fill="#3F3D56"/>
<path d="M160.258 138.263H159.269C159.174 138.263 159.096 138.34 159.096 138.436V138.891C159.096 138.987 159.174 139.064 159.269 139.064H160.258C160.354 139.064 160.431 138.987 160.431 138.891V138.436C160.431 138.34 160.354 138.263 160.258 138.263Z" fill="#3F3D56"/>
<path d="M162.928 138.263H161.939C161.844 138.263 161.766 138.34 161.766 138.436V138.891C161.766 138.987 161.844 139.064 161.939 139.064H162.928C163.024 139.064 163.101 138.987 163.101 138.891V138.436C163.101 138.34 163.024 138.263 162.928 138.263Z" fill="#3F3D56"/>
<path d="M165.598 138.263H164.61C164.514 138.263 164.436 138.34 164.436 138.436V138.891C164.436 138.987 164.514 139.064 164.61 139.064H165.598C165.694 139.064 165.771 138.987 165.771 138.891V138.436C165.771 138.34 165.694 138.263 165.598 138.263Z" fill="#3F3D56"/>
<path d="M125.515 139.599H124.526C124.431 139.599 124.353 139.677 124.353 139.773V140.227C124.353 140.323 124.431 140.401 124.526 140.401H125.515C125.61 140.401 125.688 140.323 125.688 140.227V139.773C125.688 139.677 125.61 139.599 125.515 139.599Z" fill="#3F3D56"/>
<path d="M128.185 139.599H127.196C127.101 139.599 127.023 139.677 127.023 139.773V140.227C127.023 140.323 127.101 140.401 127.196 140.401H128.185C128.281 140.401 128.358 140.323 128.358 140.227V139.773C128.358 139.677 128.281 139.599 128.185 139.599Z" fill="#3F3D56"/>
<path d="M130.855 139.599H129.866C129.771 139.599 129.693 139.677 129.693 139.773V140.227C129.693 140.323 129.771 140.401 129.866 140.401H130.855C130.951 140.401 131.028 140.323 131.028 140.227V139.773C131.028 139.677 130.951 139.599 130.855 139.599Z" fill="#3F3D56"/>
<path d="M133.525 139.599H132.537C132.441 139.599 132.363 139.677 132.363 139.773V140.227C132.363 140.323 132.441 140.401 132.537 140.401H133.525C133.621 140.401 133.698 140.323 133.698 140.227V139.773C133.698 139.677 133.621 139.599 133.525 139.599Z" fill="#3F3D56"/>
<path d="M136.195 139.599H135.207C135.111 139.599 135.033 139.677 135.033 139.773V140.227C135.033 140.323 135.111 140.401 135.207 140.401H136.195C136.291 140.401 136.368 140.323 136.368 140.227V139.773C136.368 139.677 136.291 139.599 136.195 139.599Z" fill="#3F3D56"/>
<path d="M138.865 139.599H137.877C137.781 139.599 137.704 139.677 137.704 139.773V140.227C137.704 140.323 137.781 140.401 137.877 140.401H138.865C138.961 140.401 139.039 140.323 139.039 140.227V139.773C139.039 139.677 138.961 139.599 138.865 139.599Z" fill="#3F3D56"/>
<path d="M141.535 139.599H140.547C140.451 139.599 140.374 139.677 140.374 139.773V140.227C140.374 140.323 140.451 140.401 140.547 140.401H141.535C141.631 140.401 141.709 140.323 141.709 140.227V139.773C141.709 139.677 141.631 139.599 141.535 139.599Z" fill="#3F3D56"/>
<path d="M144.206 139.599H143.217C143.121 139.599 143.044 139.677 143.044 139.773V140.227C143.044 140.323 143.121 140.401 143.217 140.401H144.206C144.301 140.401 144.379 140.323 144.379 140.227V139.773C144.379 139.677 144.301 139.599 144.206 139.599Z" fill="#3F3D56"/>
<path d="M146.876 139.599H145.887C145.791 139.599 145.714 139.677 145.714 139.773V140.227C145.714 140.323 145.791 140.401 145.887 140.401H146.876C146.971 140.401 147.049 140.323 147.049 140.227V139.773C147.049 139.677 146.971 139.599 146.876 139.599Z" fill="#3F3D56"/>
<path d="M149.546 139.599H148.557C148.462 139.599 148.384 139.677 148.384 139.773V140.227C148.384 140.323 148.462 140.401 148.557 140.401H149.546C149.642 140.401 149.719 140.323 149.719 140.227V139.773C149.719 139.677 149.642 139.599 149.546 139.599Z" fill="#3F3D56"/>
<path d="M152.216 139.599H151.227C151.132 139.599 151.054 139.677 151.054 139.773V140.227C151.054 140.323 151.132 140.401 151.227 140.401H152.216C152.312 140.401 152.389 140.323 152.389 140.227V139.773C152.389 139.677 152.312 139.599 152.216 139.599Z" fill="#3F3D56"/>
<path d="M154.886 139.599H153.898C153.802 139.599 153.724 139.677 153.724 139.773V140.227C153.724 140.323 153.802 140.401 153.898 140.401H154.886C154.982 140.401 155.059 140.323 155.059 140.227V139.773C155.059 139.677 154.982 139.599 154.886 139.599Z" fill="#3F3D56"/>
<path d="M157.556 139.599H156.568C156.472 139.599 156.394 139.677 156.394 139.773V140.227C156.394 140.323 156.472 140.401 156.568 140.401H157.556C157.652 140.401 157.729 140.323 157.729 140.227V139.773C157.729 139.677 157.652 139.599 157.556 139.599Z" fill="#3F3D56"/>
<path d="M160.226 139.599H159.238C159.142 139.599 159.065 139.677 159.065 139.773V140.227C159.065 140.323 159.142 140.401 159.238 140.401H160.226C160.322 140.401 160.4 140.323 160.4 140.227V139.773C160.4 139.677 160.322 139.599 160.226 139.599Z" fill="#3F3D56"/>
<path d="M162.896 139.599H161.908C161.812 139.599 161.735 139.677 161.735 139.773V140.227C161.735 140.323 161.812 140.401 161.908 140.401H162.896C162.992 140.401 163.07 140.323 163.07 140.227V139.773C163.07 139.677 162.992 139.599 162.896 139.599Z" fill="#3F3D56"/>
<path d="M165.567 139.599H164.578C164.482 139.599 164.405 139.677 164.405 139.773V140.227C164.405 140.323 164.482 140.401 164.578 140.401H165.567C165.662 140.401 165.74 140.323 165.74 140.227V139.773C165.74 139.677 165.662 139.599 165.567 139.599Z" fill="#3F3D56"/>
<path d="M147.677 141.203H137.343C137.247 141.203 137.17 141.28 137.17 141.376V141.831C137.17 141.927 137.247 142.004 137.343 142.004H147.677C147.772 142.004 147.85 141.927 147.85 141.831V141.376C147.85 141.28 147.772 141.203 147.677 141.203Z" fill="#3F3D56"/>
<path d="M177.281 76.6246H109.107C109.036 76.6232 108.968 76.5939 108.918 76.5432C108.869 76.4925 108.841 76.4243 108.841 76.3533C108.841 76.2823 108.869 76.2141 108.918 76.1634C108.968 76.1126 109.036 76.0834 109.107 76.0819H177.281C177.352 76.0834 177.419 76.1126 177.469 76.1634C177.519 76.2141 177.547 76.2823 177.547 76.3533C177.547 76.4243 177.519 76.4925 177.469 76.5432C177.419 76.5939 177.352 76.6232 177.281 76.6246Z" fill="#CACACA"/>
<path d="M113.747 74.6963C114.625 74.6963 115.336 73.9684 115.336 73.0705C115.336 72.1726 114.625 71.4447 113.747 71.4447C112.87 71.4447 112.158 72.1726 112.158 73.0705C112.158 73.9684 112.87 74.6963 113.747 74.6963Z" fill="#3F3D56"/>
<path d="M119.236 74.6963C120.113 74.6963 120.825 73.9684 120.825 73.0705C120.825 72.1726 120.113 71.4447 119.236 71.4447C118.358 71.4447 117.647 72.1726 117.647 73.0705C117.647 73.9684 118.358 74.6963 119.236 74.6963Z" fill="#3F3D56"/>
<path d="M124.725 74.6963C125.602 74.6963 126.313 73.9684 126.313 73.0705C126.313 72.1726 125.602 71.4447 124.725 71.4447C123.847 71.4447 123.136 72.1726 123.136 73.0705C123.136 73.9684 123.847 74.6963 124.725 74.6963Z" fill="#3F3D56"/>
<path d="M173.976 71.8477H170.077C170 71.8492 169.927 71.881 169.872 71.9362C169.818 71.9915 169.788 72.0658 169.788 72.1431C169.788 72.2205 169.818 72.2948 169.872 72.3501C169.927 72.4053 170 72.4371 170.077 72.4387H173.976C174.054 72.4371 174.127 72.4053 174.181 72.3501C174.235 72.2948 174.266 72.2205 174.266 72.1431C174.266 72.0658 174.235 71.9915 174.181 71.9362C174.127 71.881 174.054 71.8492 173.976 71.8477Z" fill="#3F3D56"/>
<path d="M173.976 72.9569H170.077C170 72.9584 169.927 72.9902 169.872 73.0455C169.818 73.1007 169.788 73.175 169.788 73.2524C169.788 73.3298 169.818 73.404 169.872 73.4593C169.927 73.5145 170 73.5463 170.077 73.5479H173.976C174.054 73.5463 174.127 73.5145 174.181 73.4593C174.235 73.404 174.266 73.3298 174.266 73.2524C174.266 73.175 174.235 73.1007 174.181 73.0455C174.127 72.9902 174.054 72.9584 173.976 72.9569Z" fill="#3F3D56"/>
<path d="M173.976 74.0647H170.077C170 74.0662 169.927 74.098 169.872 74.1533C169.818 74.2085 169.788 74.2828 169.788 74.3602C169.788 74.4375 169.818 74.5118 169.872 74.5671C169.927 74.6223 170 74.6541 170.077 74.6557H173.976C174.054 74.6541 174.127 74.6223 174.181 74.5671C174.235 74.5118 174.266 74.4375 174.266 74.3602C174.266 74.2828 174.235 74.2085 174.181 74.1533C174.127 74.098 174.054 74.0662 173.976 74.0647Z" fill="#3F3D56"/>
<path d="M148.64 92.4787H140.121C139.481 92.4787 138.962 92.9979 138.962 93.6384V93.6384C138.962 94.2788 139.481 94.798 140.121 94.798H148.64C149.279 94.798 149.798 94.2788 149.798 93.6384V93.6384C149.798 92.9979 149.279 92.4787 148.64 92.4787Z" fill="#343D68"/>
<path d="M154.143 97.1174H134.618C133.978 97.1174 133.459 97.6366 133.459 98.2771V98.2771C133.459 98.9176 133.978 99.4368 134.618 99.4368H154.143C154.783 99.4368 155.301 98.9176 155.301 98.2771C155.301 97.6366 154.783 97.1174 154.143 97.1174Z" fill="#E6E6E6"/>
<path d="M154.143 101.756H134.618C133.978 101.756 133.459 102.275 133.459 102.916C133.459 103.556 133.978 104.076 134.618 104.076H154.143C154.783 104.076 155.301 103.556 155.301 102.916C155.301 102.275 154.783 101.756 154.143 101.756Z" fill="#E6E6E6"/>
<path d="M109.772 145.969H88.4763C87.7232 145.969 87.001 146.269 86.4685 146.802C85.936 147.335 85.6368 148.058 85.6368 148.812C85.6368 149.565 85.936 150.288 86.4685 150.821C87.001 151.354 87.7232 151.654 88.4763 151.654H96.2848V173.681H101.964V151.654H109.772C110.525 151.654 111.248 151.354 111.78 150.821C112.313 150.288 112.612 149.565 112.612 148.812C112.612 148.058 112.313 147.335 111.78 146.802C111.248 146.269 110.525 145.969 109.772 145.969Z" fill="#3F3D56"/>
<path d="M123.828 185.88H66.8674C61.3453 185.86 56.0148 183.852 51.8497 180.223C47.6845 176.594 44.9626 171.586 44.1813 166.114L42.1651 158.69C37.9918 143.307 31.6351 128.602 23.2893 115.026C19.4747 108.825 17.5114 102.822 21.9708 97.0431C22.0087 96.9939 22.0461 96.9454 22.0828 96.8975C25.6595 92.2376 43.4619 91.2289 49.2655 91.0327C49.4947 91.0248 49.7249 91.021 49.9559 91.021H85.3848C85.616 91.021 85.8461 91.0249 86.0751 91.0327C89.2037 91.124 92.2492 92.0613 94.8885 93.7452C97.5279 95.4291 99.6626 97.7968 101.066 100.597C102.564 103.456 103.26 106.667 103.082 109.891C102.903 113.114 101.857 116.229 100.052 118.904C87.6073 137.617 83.797 149.351 87.698 156.949C91.4714 164.299 103.038 168.057 124.099 168.775C129.759 168.968 132.357 173.379 132.375 177.396C132.393 181.309 129.895 185.63 124.37 185.869C124.191 185.876 124.01 185.88 123.828 185.88Z" fill="#3F3D56"/>
<path d="M76.5437 236.507H97.8397C98.5927 236.507 99.315 236.208 99.8475 235.675C100.38 235.142 100.679 234.419 100.679 233.665C100.679 232.911 100.38 232.188 99.8475 231.655C99.315 231.122 98.5927 230.823 97.8397 230.823H90.0311V182.86H84.3522V230.823H76.5437C75.7906 230.823 75.0684 231.122 74.5359 231.655C74.0034 232.188 73.7043 232.911 73.7043 233.665C73.7043 234.419 74.0034 235.142 74.5359 235.675C75.0684 236.208 75.7906 236.507 76.5437 236.507Z" fill="#3F3D56"/>
<path d="M74.8429 92.8013L75.2894 95.5167C75.5005 96.8334 76.2653 106.134 75.6987 107.244C75.6488 105.172 71.7945 101.915 69.2971 102.659L65.3778 103.53L62.9453 104.072L60.9655 104.507L55.2123 105.765C55.2023 105.698 55.195 105.627 55.185 105.56C55.1714 105.476 55.1578 105.392 55.1407 105.308C55.0336 104.768 54.8382 104.249 54.5624 103.773C54.5332 104.411 54.345 105.032 54.0149 105.578C54.0059 105.593 53.9981 105.608 53.9915 105.623C53.8893 105.789 53.7765 105.947 53.6539 106.098C53.6482 106.102 53.6431 106.107 53.6386 106.112C53.6386 106.112 52.4565 87.2508 52.5804 87.0767C52.671 86.953 52.7624 86.8327 52.8579 86.7152C52.9527 86.5943 53.0448 86.4775 53.1438 86.3593C53.1565 86.3481 53.1672 86.3349 53.1756 86.3202C53.4529 85.9916 53.7466 85.6773 54.0555 85.3784C54.1463 85.2909 54.2406 85.2027 54.3348 85.1145C55.7741 83.7815 57.4938 82.7886 59.3672 82.2089C59.5785 82.1439 59.7982 82.0844 60.0214 82.0241C60.2418 81.9681 60.4664 81.9149 60.6924 81.8686L60.7689 81.8529C60.8767 81.8308 60.9887 81.8115 61.0972 81.7929C61.2335 81.7686 61.3706 81.7478 61.5048 81.7312C63.2479 81.4799 65.0235 81.5798 66.7275 82.025C66.731 82.0243 66.7317 82.0278 66.7352 82.0271C68.1575 82.3991 69.5094 83.0018 70.7372 83.8111C72.8609 85.2147 73.6876 87.5041 74.2746 90.0746C74.4805 90.9572 74.6537 91.8755 74.8429 92.8013Z" fill="#2F2E41"/>
<path d="M95.8186 217.171L99.4872 219.166L109.199 205.725L103.784 202.781L95.8186 217.171Z" fill="#FFB6B6"/>
<path d="M97.5845 212.382L104.244 214.469L103.184 217.262L107.751 223.897C107.977 224.224 108.092 224.616 108.08 225.013C108.067 225.411 107.928 225.795 107.683 226.108C107.438 226.421 107.099 226.647 106.716 226.754C106.333 226.86 105.926 226.842 105.554 226.7L97.8008 223.752L97.513 220.481L95.9426 223.045L93.0194 221.934L97.5845 212.382Z" fill="#2F2E41"/>
<path d="M116.599 157.054C116.013 157.197 115.403 157.209 114.813 157.091C114.222 156.972 113.664 156.725 113.179 156.367C112.693 156.01 112.292 155.55 112.004 155.02C111.716 154.49 111.547 153.904 111.509 153.302L80.2177 142.034L85.9604 137.031L115.66 148.868C116.675 148.872 117.653 149.249 118.409 149.926C119.165 150.603 119.646 151.535 119.762 152.544C119.877 153.553 119.619 154.569 119.036 155.401C118.453 156.232 117.586 156.82 116.599 157.054Z" fill="#FFB6B6"/>
<path d="M71.4763 114.118C71.4763 114.118 66.2061 114.235 65.7375 120.257C65.269 126.28 76.7685 141.177 78.5501 143.633C80.3318 146.09 100.122 149.114 100.122 149.114L106.849 144.225C99.7803 139.64 93.329 136.125 88.9995 136.283L71.4763 114.118Z" fill="#343D68"/>
<path d="M65.0127 140.692L66.2969 146.216C66.2969 146.216 66.3095 151.309 67.2106 152.248C68.1054 153.182 87.7808 151.306 87.7808 151.306C87.7808 151.306 85.6947 143.099 85.7225 136.889L65.0127 140.692Z" fill="#FFB6B6"/>
<path d="M106.578 211.341L99.4792 207.432C99.3442 198.186 104.9 185.674 111.49 172.568C96.7521 175.105 82.8483 175.918 70.8221 172.849C68.8478 172.327 67.1579 171.048 66.1176 169.29C65.0774 167.531 64.7703 165.433 65.2629 163.449C65.3097 163.254 65.3638 163.062 65.4252 162.871C66.8645 158.475 63.6372 155.72 66.6056 150.885C74.4128 148.216 81.8294 147.463 88.6114 149.819L92.8608 159.224L113.923 156.496C114.941 156.374 115.973 156.455 116.959 156.734C117.945 157.014 118.866 157.485 119.669 158.122C120.473 158.76 121.142 159.55 121.639 160.447C122.135 161.344 122.45 162.331 122.564 163.351C122.592 163.579 122.61 163.809 122.619 164.04C118.36 184.025 113.585 202.008 106.578 211.341Z" fill="#2F2E41"/>
<path d="M65.9881 102.526C70.7518 101.55 73.8233 96.8938 72.8486 92.1254C71.8738 87.3571 67.2219 84.2826 62.4582 85.2583C57.6945 86.234 54.623 90.8904 55.5978 95.6587C56.5725 100.427 61.2244 103.502 65.9881 102.526Z" fill="#FFB6B6"/>
<path d="M62.1536 105.725L70.2677 105.245C70.6098 105.225 70.9498 105.312 71.2402 105.495C71.5305 105.677 71.7568 105.945 71.8875 106.263L74.1806 111.827L83.7106 119.711C83.7106 119.711 87.4837 124.517 87.4925 130.724C87.5013 136.932 88.8312 151.299 88.8312 151.299C88.8312 151.299 83.3244 143.54 79.9255 145.603C79.3473 145.954 79.1439 146.672 78.5382 147.035C78.236 147.216 77.538 147.04 77.2329 147.222C72.5493 150.005 67.6647 152.724 67.2083 152.247C66.3122 151.311 65.2252 146.528 65.2252 146.528L57.7978 119.211C57.3951 117.774 57.3152 116.266 57.5637 114.794C57.8122 113.322 58.3829 111.923 59.2351 110.698C59.754 109.967 60.2976 109.423 60.8029 109.333C61.9373 109.091 61.3339 106.546 62.1536 105.725Z" fill="#343D68"/>
<path d="M131.177 228.742L134.602 226.358L126.843 211.705L121.788 215.223L131.177 228.742Z" fill="#FFB6B6"/>
<path d="M131.695 218.91L126.327 223.713C117.791 214.193 111.339 200.842 105.871 185.679C91.5437 181.479 80.7391 174.705 71.3069 166.663C68.107 163.952 65.7083 160.471 68.4373 157.169C68.5649 157.015 68.6981 156.866 68.837 156.721C72.0592 153.407 80.2306 154.038 85.0164 151.002L95.7075 162.44L95.035 165.507L115.116 172.316C116.082 172.655 116.972 173.182 117.734 173.867C118.495 174.551 119.114 175.38 119.554 176.306C119.994 177.231 120.247 178.235 120.297 179.258C120.348 180.282 120.196 181.305 119.849 182.27C119.774 182.488 119.69 182.702 119.596 182.913L131.695 218.91Z" fill="#2F2E41"/>
<path d="M129.18 227.776L134.663 223.454L136.366 225.907L144.416 225.882C144.813 225.881 145.201 226.007 145.522 226.242C145.843 226.477 146.08 226.808 146.2 227.188C146.319 227.567 146.314 227.975 146.186 228.352C146.057 228.728 145.812 229.054 145.486 229.281L138.675 234.019L135.817 232.41L137.043 235.155L134.476 236.942L129.18 227.776Z" fill="#2F2E41"/>
<path d="M74.1355 174.567C73.5807 174.331 73.0843 173.976 72.6813 173.528C72.2782 173.079 71.9783 172.548 71.8027 171.971C71.6271 171.394 71.58 170.785 71.6647 170.188C71.7495 169.591 71.964 169.019 72.2933 168.514L53.924 140.766L61.5147 140.189L78.2683 167.441C79.0797 168.051 79.6393 168.937 79.8412 169.933C80.0431 170.928 79.8733 171.963 79.3639 172.841C78.8544 173.72 78.0408 174.38 77.0772 174.698C76.1136 175.016 75.0669 174.97 74.1355 174.567Z" fill="#FFB6B6"/>
<path d="M63.5737 113.153C63.5737 113.153 59.2779 110.094 55.3078 114.644C51.3377 119.194 51.6692 138.017 51.6319 141.052C51.6202 142.003 52.9914 144.054 54.8806 146.423C55.7288 147.486 56.6813 148.614 57.66 149.735C58.2263 150.384 57.7384 151.734 58.307 152.364C58.8726 152.991 60.4949 152.899 61.0329 153.481C63.5863 156.243 65.6607 158.346 65.6607 158.346L73.9733 158.448C74.0671 152.263 69.8353 146.742 64.3987 141.406L63.5737 113.153Z" fill="#343D68"/>
<path d="M75.227 89.6112C74.9012 89.7722 74.5852 89.9276 74.2747 90.0746C73.0289 90.6876 71.7414 91.2119 70.4218 91.6434C70.2022 91.0456 69.8673 90.4969 69.436 90.0285C69.5464 90.6753 69.4901 91.3396 69.2726 91.9586C67.2752 92.4538 65.1786 92.3727 63.2254 91.7249C64.5027 94.0924 65.4465 99.0812 65.3778 103.53C65.3479 105.883 65.0298 108.084 64.3352 109.666L63.4425 106.948C63.3598 105.977 63.1934 105.014 62.9453 104.072C62.3468 101.428 61.788 103.196 60.9655 104.507L55.2123 105.765C55.2023 105.698 55.195 105.627 55.185 105.56C55.1714 105.476 55.1578 105.392 55.1407 105.308C55.0336 104.768 54.8382 104.249 54.5624 103.773C54.5332 104.411 54.345 105.032 54.0149 105.578C54.0059 105.593 53.9981 105.608 53.9915 105.623C53.8893 105.789 53.7765 105.947 53.6539 106.098C53.6482 106.102 53.6431 106.107 53.6386 106.112C49.9243 106.61 47.3205 87.4369 52.5811 87.0802C52.734 87.0698 52.7631 86.8362 52.8579 86.7152C52.9527 86.5943 53.0448 86.4775 53.1438 86.3593C53.1565 86.3481 53.1672 86.3349 53.1756 86.3202C53.4568 85.9942 53.7478 85.6808 54.0555 85.3784C54.1463 85.2909 54.2406 85.2027 54.3348 85.1145C55.7786 83.788 57.4972 82.797 59.3679 82.2124C59.5792 82.1474 59.7982 82.0844 60.0214 82.0241C60.2418 81.9681 60.4664 81.9149 60.6924 81.8686L60.7689 81.8529C60.8767 81.8308 60.9887 81.8115 61.0972 81.7929C61.2335 81.7686 61.3706 81.7478 61.5048 81.7312C62.009 81.9855 62.4404 82.3639 62.7585 82.8307L66.434 82.0779C66.5313 82.0579 66.6294 82.0415 66.7282 82.0285L66.7352 82.0271C71.3238 81.2577 74.2742 84.9506 75.227 89.6112Z" fill="#2F2E41"/>
<path d="M55.1948 86.2215C54.4078 86.7901 53.5799 87.3758 52.6196 87.5167C51.6593 87.6576 50.535 87.1929 50.2692 86.2585C49.9443 85.1161 50.9749 84.0758 51.9013 83.3333L54.8387 80.9789C55.3766 80.5014 55.9838 80.1084 56.6396 79.8133C56.969 79.6682 57.3268 79.5992 57.6865 79.6112C58.0462 79.6232 58.3985 79.7161 58.7175 79.8829C59.0332 80.0963 59.2891 80.387 59.4608 80.7274C59.6324 81.0678 59.7142 81.4465 59.6982 81.8275C59.6563 82.5911 59.4046 83.3282 58.9707 83.9577C58.4255 84.8084 57.7138 85.5399 56.8787 86.1082C56.0436 86.6764 55.1023 87.0696 54.1113 87.2641" fill="#2F2E41"/>
<path d="M77.4734 147.391H56.1775C55.4244 147.391 54.7022 147.69 54.1697 148.223C53.6372 148.756 53.338 149.479 53.338 150.233C53.338 150.987 53.6372 151.709 54.1697 152.242C54.7022 152.775 55.4244 153.075 56.1775 153.075H63.986V175.102H69.6649V153.075H77.4734C78.2265 153.075 78.9487 152.775 79.4812 152.242C80.0137 151.709 80.3129 150.987 80.3129 150.233C80.3129 149.479 80.0137 148.756 79.4812 148.223C78.9487 147.69 78.2265 147.391 77.4734 147.391Z" fill="#3F3D56"/>
<path d="M156.149 237.536L0.422611 237.645C0.310739 237.644 0.203563 237.6 0.124572 237.52C0.045581 237.441 0.0012207 237.334 0.0012207 237.222C0.0012207 237.11 0.045581 237.002 0.124572 236.923C0.203563 236.844 0.310739 236.799 0.422611 236.799L156.149 236.689C156.261 236.69 156.368 236.735 156.447 236.814C156.526 236.893 156.571 237.001 156.571 237.113C156.571 237.224 156.526 237.332 156.447 237.411C156.368 237.49 156.261 237.535 156.149 237.536Z" fill="#CACACA"/>
<path d="M201.467 190.349L204.934 194.131L221.155 182.546L216.039 176.965L201.467 190.349Z" fill="#A0616A"/>
<path d="M208.642 195.701V195.698L208.291 191.921L208.131 191.846L207.198 191.402L202.793 189.317L202.701 189.217L201.817 188.251L196.922 192.749L203.552 199.982L208.099 204.942L208.252 204.8C208.875 204.228 209.379 203.54 209.736 202.773C210.093 202.006 210.295 201.177 210.332 200.332C210.368 199.486 210.237 198.642 209.947 197.848C209.658 197.053 209.214 196.324 208.642 195.701Z" fill="#2F2E41"/>
<path d="M183.506 228.074L188.412 229.566L196.495 211.334L189.255 209.132L183.506 228.074Z" fill="#A0616A"/>
<path d="M196.209 232.156C195.813 231.409 195.273 230.747 194.62 230.21C193.967 229.674 193.214 229.272 192.404 229.03L190.179 225.957L190.005 225.971L184.123 226.511L183.992 226.472L182.743 226.092L180.812 232.455L196.631 237.265L196.692 237.063C196.938 236.253 197.023 235.403 196.94 234.561C196.857 233.719 196.609 232.902 196.209 232.156Z" fill="#2F2E41"/>
<path d="M223.961 132.614C223.961 132.614 255.285 162.886 235.483 172.256H229.362C229.362 172.256 227.523 165.716 223.312 160.2C222.734 159.442 220.568 159.596 219.966 158.858C216.293 154.351 212.31 150.479 209.56 150.633L210.218 171.549L211.283 179.01C211.842 182.867 196.063 216.543 196.063 216.543L186.145 212.641C186.145 212.641 196.478 184.904 196.599 180.905L188.318 136.938L223.961 132.614Z" fill="#2F2E41"/>
<path d="M226.573 134.107C226.414 134.335 226.205 134.524 225.963 134.661C225.564 134.887 225.131 135.047 224.682 135.137C217.629 136.739 194.59 140.061 188.61 138.477C187.875 138.285 187.396 138.015 187.24 137.659C186.739 136.537 186.803 131.794 187.098 126.067C187.151 124.994 188.333 123.832 188.404 122.709C188.454 121.867 187.392 121.075 187.449 120.219C187.84 114.428 188.344 108.527 188.681 104.796C188.894 102.398 189.039 100.899 189.039 100.899L185.401 77.9372L185.572 77.6566L185.763 77.5607L197.494 71.7483L198.133 70.1141C198.318 69.6435 198.64 69.2393 199.057 68.9537C199.473 68.668 199.966 68.5141 200.472 68.5117L208.199 68.4798C208.599 68.4776 208.995 68.5712 209.352 68.7529C209.71 68.9345 210.019 69.199 210.254 69.5243L212.348 72.4269L226.19 81.3088L226.137 81.4723L219.642 101.258L219.61 102.8V102.803L219.368 115.202L220.039 116.883L219.283 119.64C219.283 119.64 219.631 122.862 221.494 125.257C223.184 127.431 225.335 129.698 226.307 131.538V131.542C226.847 132.558 227.028 133.439 226.573 134.107Z" fill="#343D68"/>
<path d="M236.987 170.458L235.312 172.576C235.312 172.576 219.914 183.359 219.385 184.367L216.952 186.672L211.064 180.371L214.126 176.53C216.576 173.455 219.742 171.029 223.347 169.463L228.039 165.296L236.987 170.458Z" fill="#2F2E41"/>
<path d="M227.202 140.193L224.398 113.025L223.658 101.843L231.507 100.422C231.507 100.422 231.196 108.418 232.224 112.929C233.238 117.38 232.358 139.596 232.296 140.19C232.872 140.706 233.278 141.385 233.461 142.137C233.644 142.889 233.594 143.679 233.318 144.402C233.042 145.125 232.554 145.748 231.917 146.187C231.28 146.626 230.525 146.861 229.752 146.862C228.979 146.862 228.224 146.628 227.587 146.189C226.95 145.75 226.461 145.129 226.184 144.406C225.908 143.683 225.857 142.893 226.039 142.141C226.221 141.389 226.626 140.709 227.202 140.193Z" fill="#A0616A"/>
<path d="M234.858 118.655L224.77 120.745L223.888 117.225L222.86 116.133L220.805 105.36L217.858 99.0487L218.624 77.4678L226.111 81.4424L226.12 81.4495C227.265 82.6937 228.054 84.4745 229.366 86.2614C233.501 91.8921 233.96 105.574 233.835 113.069C233.833 113.192 233.956 113.321 234.105 113.458C234.809 114.105 235.268 114.975 235.406 115.922C235.543 116.869 235.35 117.834 234.858 118.655Z" fill="#343D68"/>
<path d="M181.521 141.259L184.325 114.09L185.065 102.909L177.217 101.488C177.217 101.488 177.528 109.483 176.5 113.994C175.485 118.446 176.365 140.662 176.428 141.256C175.851 141.772 175.445 142.451 175.262 143.203C175.08 143.955 175.13 144.745 175.405 145.468C175.681 146.191 176.17 146.814 176.806 147.253C177.443 147.692 178.198 147.927 178.971 147.928C179.744 147.928 180.499 147.693 181.137 147.255C181.774 146.816 182.263 146.194 182.539 145.472C182.816 144.749 182.866 143.959 182.684 143.207C182.503 142.454 182.097 141.775 181.521 141.259Z" fill="#A0616A"/>
<path d="M190.867 100.114L188.681 104.796L187.918 106.427L185.863 117.199L184.837 118.29L183.953 121.81L183.538 121.725L176.049 120.173L173.866 119.721C173.374 118.901 173.18 117.936 173.317 116.988C173.454 116.041 173.914 115.171 174.618 114.524C174.767 114.389 174.892 114.257 174.888 114.133C174.764 106.64 175.222 92.9584 179.357 87.3272C180.67 85.5402 181.458 83.7602 182.604 82.5168C182.608 82.5132 182.608 82.5097 182.611 82.5097L185.401 77.9373L185.572 77.6566L185.763 77.5607L190.867 100.114Z" fill="#343D68"/>
<path d="M204.112 66.2779C209.79 66.2779 214.393 61.6705 214.393 55.987C214.393 50.3036 209.79 45.6962 204.112 45.6962C198.434 45.6962 193.831 50.3036 193.831 55.987C193.831 61.6705 198.434 66.2779 204.112 66.2779Z" fill="#A0616A"/>
<path d="M215.67 51.4726C215.634 49.7175 215.436 47.4722 214.208 45.6816C213.171 44.1752 211.081 42.9815 209.132 43.5783C209.154 43.1883 209.067 42.7999 208.882 42.4562C208.696 42.1125 208.419 41.827 208.081 41.6314C207.343 41.1802 206.456 41.0985 205.671 41.0239C203.694 40.8392 201.646 40.6473 199.645 41.0275C197.398 41.4538 195.559 42.612 194.605 44.2072L194.583 44.2569L194.388 45.202C194.362 45.3287 194.309 45.4483 194.232 45.5526C194.156 45.6568 194.058 45.7433 193.944 45.8059C193.831 45.8695 193.705 45.9073 193.576 45.9165C193.446 45.9257 193.317 45.9061 193.196 45.8592C193.063 45.8095 192.92 45.7952 192.78 45.8179C192.641 45.8405 192.509 45.8992 192.399 45.9882C192.289 46.0771 192.204 46.1933 192.153 46.3253C192.101 46.4572 192.085 46.6003 192.106 46.7403L192.159 47.1169L191.595 47.0103C191.453 46.9829 191.307 46.9938 191.171 47.0419C191.035 47.09 190.914 47.1736 190.821 47.2841C190.728 47.3945 190.666 47.5278 190.642 47.6702C190.617 47.8126 190.632 47.9589 190.683 48.0939L190.839 48.5238C190.722 48.5254 190.607 48.5504 190.5 48.5974C190.394 48.6444 190.298 48.7124 190.218 48.7974C190.104 48.9213 190.032 49.0781 190.013 49.2454C189.994 49.4127 190.028 49.5818 190.111 49.7282C190.744 50.809 191.64 51.7112 192.716 52.3502C193.2 52.642 193.722 52.8656 194.267 53.0145C194.381 53.0465 194.498 53.0749 194.619 53.0998C198.977 54.0399 203.469 54.1747 207.876 53.4977C207.616 54.3679 207.516 55.2779 207.581 56.1836C207.723 57.3169 208.387 58.2513 209.274 58.564C209.475 58.6321 209.682 58.682 209.892 58.7132C210.093 58.7458 210.291 58.7945 210.484 58.8589C210.77 58.9635 211.022 59.1418 211.217 59.3757C211.412 59.6095 211.541 59.8906 211.592 60.1906C211.643 60.4906 211.614 60.7987 211.508 61.0839C211.402 61.3691 211.223 61.6212 210.988 61.8148C210.988 61.8148 211.918 62.5857 212.035 62.5466C212.492 62.3445 212.875 62.0041 213.128 61.5732C214.9 59.0223 215.755 55.6258 215.67 51.4726Z" fill="#2F2E41"/>
</g>
<defs>
<clipPath id="clip0_8_443">
<rect width="274.764" height="238" fill="white"/>
</clipPath>
</defs>
</svg>
