<svg width="40" height="40" viewBox="0 0 40 40" fill="none" xmlns="http://www.w3.org/2000/svg">
<circle cx="20" cy="20" r="20" fill="#010E4A"/>
<g clip-path="url(#clip0_8_261)">
<path d="M21.0417 27.2C21.0417 26.8906 20.9397 26.6258 20.7357 26.4055C20.5317 26.1852 20.2865 26.075 20 26.075C19.7135 26.075 19.4683 26.1852 19.2643 26.4055C19.0603 26.6258 18.9583 26.8906 18.9583 27.2C18.9583 27.5094 19.0603 27.7742 19.2643 27.9945C19.4683 28.2148 19.7135 28.325 20 28.325C20.2865 28.325 20.5317 28.2148 20.7357 27.9945C20.9397 27.7742 21.0417 27.5094 21.0417 27.2ZM23.75 24.95V15.05C23.75 14.9281 23.7088 14.8227 23.6263 14.7336C23.5438 14.6445 23.4462 14.6 23.3333 14.6H16.6667C16.5538 14.6 16.4562 14.6445 16.3737 14.7336C16.2912 14.8227 16.25 14.9281 16.25 15.05V24.95C16.25 25.0719 16.2912 25.1773 16.3737 25.2664C16.4562 25.3555 16.5538 25.4 16.6667 25.4H23.3333C23.4462 25.4 23.5438 25.3555 23.6263 25.2664C23.7088 25.1773 23.75 25.0719 23.75 24.95ZM21.25 13.025C21.25 12.875 21.1806 12.8 21.0417 12.8H18.9583C18.8194 12.8 18.75 12.875 18.75 13.025C18.75 13.175 18.8194 13.25 18.9583 13.25H21.0417C21.1806 13.25 21.25 13.175 21.25 13.025ZM25 12.8V27.2C25 27.6875 24.8351 28.1094 24.5052 28.4656C24.1753 28.8219 23.7847 29 23.3333 29H16.6667C16.2153 29 15.8247 28.8219 15.4948 28.4656C15.1649 28.1094 15 27.6875 15 27.2V12.8C15 12.3125 15.1649 11.8906 15.4948 11.5344C15.8247 11.1781 16.2153 11 16.6667 11H23.3333C23.7847 11 24.1753 11.1781 24.5052 11.5344C24.8351 11.8906 25 12.3125 25 12.8Z" fill="white"/>
</g>
<defs>
<clipPath id="clip0_8_261">
<rect width="10" height="18" fill="white" transform="translate(15 11)"/>
</clipPath>
</defs>
</svg>
