<svg width="170" height="170" viewBox="0 0 170 170" fill="none" xmlns="http://www.w3.org/2000/svg">
<g filter="url(#filter0_i_28_809)">
<circle cx="85" cy="85" r="85" fill="url(#paint0_linear_28_809)"/>
</g>
<path d="M37.3162 69.8H40.1482L36.2602 75.96V81H33.8602V75.96L29.9722 69.8H32.8042L35.0602 73.352L37.3162 69.8ZM43.1909 81.208C42.4549 81.208 41.7829 81.0187 41.1749 80.64C40.5723 80.2613 40.0896 79.7547 39.7269 79.12C39.3696 78.48 39.1909 77.7733 39.1909 77C39.1909 76.4133 39.2949 75.8667 39.5029 75.36C39.7109 74.848 39.9963 74.4 40.3589 74.016C40.7269 73.6267 41.1536 73.3227 41.6389 73.104C42.1243 72.8853 42.6416 72.776 43.1909 72.776C43.9269 72.776 44.5963 72.9653 45.1989 73.344C45.8069 73.7227 46.2896 74.232 46.6469 74.872C47.0096 75.512 47.1909 76.2213 47.1909 77C47.1909 77.5813 47.0869 78.1253 46.8789 78.632C46.6709 79.1387 46.3829 79.5867 46.0149 79.976C45.6523 80.36 45.2283 80.6613 44.7429 80.88C44.2629 81.0987 43.7456 81.208 43.1909 81.208ZM43.1909 78.808C43.4949 78.808 43.7669 78.7253 44.0069 78.56C44.2523 78.3947 44.4443 78.176 44.5829 77.904C44.7216 77.6267 44.7909 77.3253 44.7909 77C44.7909 76.664 44.7163 76.3573 44.5669 76.08C44.4229 75.8027 44.2283 75.584 43.9829 75.424C43.7429 75.2587 43.4789 75.176 43.1909 75.176C42.8923 75.176 42.6203 75.2613 42.3749 75.432C42.1349 75.5973 41.9429 75.8187 41.7989 76.096C41.6603 76.3733 41.5909 76.6747 41.5909 77C41.5909 77.3413 41.6629 77.648 41.8069 77.92C41.9563 78.192 42.1509 78.408 42.3909 78.568C42.6363 78.728 42.9029 78.808 43.1909 78.808ZM47.8353 78.096V73H50.2353V77.424C50.2353 77.6747 50.2966 77.904 50.4193 78.112C50.542 78.3147 50.7046 78.4773 50.9073 78.6C51.1153 78.7173 51.342 78.776 51.5873 78.776C51.838 78.776 52.0646 78.7173 52.2673 78.6C52.4753 78.4773 52.638 78.3147 52.7553 78.112C52.878 77.904 52.9393 77.6747 52.9393 77.424V73H55.3393L55.3473 81H52.9473L52.9393 80.48C52.6726 80.7093 52.3686 80.888 52.0273 81.016C51.686 81.144 51.326 81.208 50.9473 81.208C50.3766 81.208 49.854 81.0693 49.3793 80.792C48.91 80.5093 48.534 80.1333 48.2513 79.664C47.974 79.1947 47.8353 78.672 47.8353 78.096ZM68.3079 75.888V81H65.9079V76.56C65.9079 76.3093 65.8466 76.0827 65.7239 75.88C65.6013 75.672 65.4386 75.5093 65.2359 75.392C65.0333 75.2693 64.8066 75.208 64.5559 75.208C64.3053 75.208 64.0759 75.2693 63.8679 75.392C63.6653 75.5093 63.5026 75.672 63.3799 75.88C63.2626 76.0827 63.2039 76.3093 63.2039 76.56V81H60.8039L60.7959 69H63.1959L63.2039 73.504C63.4706 73.2747 63.7746 73.096 64.1159 72.968C64.4573 72.84 64.8173 72.776 65.1959 72.776C65.7719 72.776 66.2946 72.9173 66.7639 73.2C67.2333 73.4773 67.6066 73.8507 67.8839 74.32C68.1666 74.7893 68.3079 75.312 68.3079 75.888ZM75.4931 73H77.8931V81H75.4851L75.3731 80.28C75.1757 80.5573 74.9251 80.7813 74.6211 80.952C74.3224 81.1227 73.9731 81.208 73.5731 81.208C72.9757 81.208 72.4157 81.096 71.8931 80.872C71.3757 80.648 70.9197 80.3387 70.5251 79.944C70.1304 79.544 69.8211 79.0853 69.5971 78.568C69.3784 78.0453 69.2691 77.4853 69.2691 76.888C69.2691 76.3173 69.3731 75.784 69.5811 75.288C69.7891 74.792 70.0797 74.3573 70.4531 73.984C70.8317 73.6053 71.2664 73.3093 71.7571 73.096C72.2531 72.8827 72.7837 72.776 73.3491 72.776C73.8077 72.776 74.2237 72.872 74.5971 73.064C74.9757 73.2507 75.3117 73.4853 75.6051 73.768L75.4931 73ZM73.5091 78.904C73.8397 78.904 74.1411 78.8187 74.4131 78.648C74.6851 78.4773 74.9011 78.248 75.0611 77.96C75.2211 77.672 75.3011 77.352 75.3011 77C75.3011 76.648 75.2211 76.328 75.0611 76.04C74.9011 75.752 74.6851 75.5227 74.4131 75.352C74.1411 75.1813 73.8397 75.096 73.5091 75.096C73.1784 75.096 72.8771 75.1813 72.6051 75.352C72.3384 75.5227 72.1251 75.752 71.9651 76.04C71.8104 76.328 71.7331 76.648 71.7331 77C71.7331 77.352 71.8131 77.672 71.9731 77.96C72.1331 78.248 72.3464 78.4773 72.6131 78.648C72.8851 78.8187 73.1837 78.904 73.5091 78.904ZM84.5663 81H81.4623L78.5503 73H81.1103L83.0143 78.248L84.9183 73H87.4783L84.5663 81ZM91.8003 81.208C91.0643 81.208 90.3923 81.0187 89.7843 80.64C89.1816 80.2613 88.699 79.752 88.3363 79.112C87.979 78.472 87.8003 77.7653 87.8003 76.992C87.8003 76.4107 87.9043 75.8667 88.1123 75.36C88.3203 74.848 88.6056 74.4 88.9683 74.016C89.3363 73.6267 89.763 73.3227 90.2483 73.104C90.7336 72.8853 91.251 72.776 91.8003 72.776C92.4403 72.776 93.0243 72.9173 93.5523 73.2C94.0856 73.4773 94.5336 73.856 94.8963 74.336C95.2643 74.8107 95.5256 75.3467 95.6803 75.944C95.835 76.5413 95.851 77.1573 95.7283 77.792H90.3923C90.467 77.9787 90.5656 78.1493 90.6883 78.304C90.8163 78.4533 90.971 78.5733 91.1523 78.664C91.339 78.7547 91.555 78.8027 91.8003 78.808C92.035 78.8133 92.251 78.7627 92.4483 78.656C92.651 78.5493 92.827 78.4053 92.9763 78.224L95.4243 78.792C95.099 79.5013 94.6136 80.0827 93.9683 80.536C93.323 80.984 92.6003 81.208 91.8003 81.208ZM90.3043 76.032H93.3043C93.2296 75.8027 93.1176 75.6 92.9683 75.424C92.819 75.248 92.643 75.1093 92.4403 75.008C92.243 74.9067 92.0296 74.856 91.8003 74.856C91.5763 74.856 91.363 74.9067 91.1603 75.008C90.963 75.1093 90.7896 75.248 90.6403 75.424C90.4963 75.6 90.3843 75.8027 90.3043 76.032ZM105.493 72.776C106.272 72.776 106.981 72.9653 107.621 73.344C108.261 73.7227 108.771 74.232 109.149 74.872C109.528 75.5067 109.717 76.2107 109.717 76.984C109.717 77.5653 109.608 78.112 109.389 78.624C109.171 79.136 108.867 79.5867 108.477 79.976C108.093 80.36 107.645 80.6613 107.133 80.88C106.627 81.0987 106.08 81.208 105.493 81.208C105.072 81.208 104.693 81.1173 104.357 80.936C104.021 80.7547 103.728 80.5253 103.477 80.248V81H101.077V69H103.477V73.736C103.728 73.4533 104.021 73.224 104.357 73.048C104.693 72.8667 105.072 72.776 105.493 72.776ZM105.461 78.888C105.792 78.888 106.093 78.8027 106.365 78.632C106.637 78.4613 106.853 78.232 107.013 77.944C107.173 77.656 107.253 77.336 107.253 76.984C107.253 76.6373 107.173 76.32 107.013 76.032C106.853 75.744 106.637 75.5147 106.365 75.344C106.093 75.168 105.792 75.08 105.461 75.08C105.136 75.08 104.837 75.168 104.565 75.344C104.299 75.5147 104.085 75.744 103.925 76.032C103.765 76.32 103.685 76.6373 103.685 76.984C103.685 77.336 103.765 77.656 103.925 77.944C104.085 78.232 104.299 78.4613 104.565 78.632C104.837 78.8027 105.136 78.888 105.461 78.888ZM114.519 81.208C113.783 81.208 113.111 81.0187 112.503 80.64C111.9 80.2613 111.418 79.752 111.055 79.112C110.698 78.472 110.519 77.7653 110.519 76.992C110.519 76.4107 110.623 75.8667 110.831 75.36C111.039 74.848 111.324 74.4 111.687 74.016C112.055 73.6267 112.482 73.3227 112.967 73.104C113.452 72.8853 113.97 72.776 114.519 72.776C115.159 72.776 115.743 72.9173 116.271 73.2C116.804 73.4773 117.252 73.856 117.615 74.336C117.983 74.8107 118.244 75.3467 118.399 75.944C118.554 76.5413 118.57 77.1573 118.447 77.792H113.111C113.186 77.9787 113.284 78.1493 113.407 78.304C113.535 78.4533 113.69 78.5733 113.871 78.664C114.058 78.7547 114.274 78.8027 114.519 78.808C114.754 78.8133 114.97 78.7627 115.167 78.656C115.37 78.5493 115.546 78.4053 115.695 78.224L118.143 78.792C117.818 79.5013 117.332 80.0827 116.687 80.536C116.042 80.984 115.319 81.208 114.519 81.208ZM113.023 76.032H116.023C115.948 75.8027 115.836 75.6 115.687 75.424C115.538 75.248 115.362 75.1093 115.159 75.008C114.962 74.9067 114.748 74.856 114.519 74.856C114.295 74.856 114.082 74.9067 113.879 75.008C113.682 75.1093 113.508 75.248 113.359 75.424C113.215 75.6 113.103 75.8027 113.023 76.032ZM123.316 81.208C122.58 81.208 121.908 81.0187 121.3 80.64C120.697 80.2613 120.215 79.752 119.852 79.112C119.495 78.472 119.316 77.7653 119.316 76.992C119.316 76.4107 119.42 75.8667 119.628 75.36C119.836 74.848 120.121 74.4 120.484 74.016C120.852 73.6267 121.279 73.3227 121.764 73.104C122.249 72.8853 122.767 72.776 123.316 72.776C123.956 72.776 124.54 72.9173 125.068 73.2C125.601 73.4773 126.049 73.856 126.412 74.336C126.78 74.8107 127.041 75.3467 127.196 75.944C127.351 76.5413 127.367 77.1573 127.244 77.792H121.908C121.983 77.9787 122.081 78.1493 122.204 78.304C122.332 78.4533 122.487 78.5733 122.668 78.664C122.855 78.7547 123.071 78.8027 123.316 78.808C123.551 78.8133 123.767 78.7627 123.964 78.656C124.167 78.5493 124.343 78.4053 124.492 78.224L126.94 78.792C126.615 79.5013 126.129 80.0827 125.484 80.536C124.839 80.984 124.116 81.208 123.316 81.208ZM121.82 76.032H124.82C124.745 75.8027 124.633 75.6 124.484 75.424C124.335 75.248 124.159 75.1093 123.956 75.008C123.759 74.9067 123.545 74.856 123.316 74.856C123.092 74.856 122.879 74.9067 122.676 75.008C122.479 75.1093 122.305 75.248 122.156 75.424C122.012 75.6 121.9 75.8027 121.82 76.032ZM136.027 75.888V81H133.627V76.56C133.627 76.3093 133.565 76.0827 133.443 75.88C133.32 75.672 133.157 75.5093 132.955 75.392C132.752 75.2693 132.525 75.208 132.275 75.208C132.024 75.208 131.795 75.2693 131.587 75.392C131.384 75.5093 131.221 75.672 131.099 75.88C130.981 76.0827 130.923 76.3093 130.923 76.56V81H128.523L128.515 73H130.915L130.923 73.504C131.189 73.2747 131.493 73.096 131.835 72.968C132.176 72.84 132.536 72.776 132.915 72.776C133.491 72.776 134.013 72.9173 134.483 73.2C134.952 73.4773 135.325 73.8507 135.603 74.32C135.885 74.7893 136.027 75.312 136.027 75.888ZM26.085 100V92H28.485V92.504C28.7517 92.2747 29.0557 92.096 29.397 91.968C29.7383 91.84 30.0983 91.776 30.477 91.776C31.0103 91.776 31.501 91.8987 31.949 92.144C32.397 92.384 32.7597 92.7067 33.037 93.112C33.3197 92.7067 33.6823 92.384 34.125 92.144C34.573 91.8987 35.061 91.776 35.589 91.776C36.165 91.776 36.6877 91.9173 37.157 92.2C37.6263 92.4773 37.9997 92.8507 38.277 93.32C38.5597 93.7893 38.701 94.312 38.701 94.888V100H36.301V95.56C36.301 95.3093 36.2397 95.0827 36.117 94.88C35.9943 94.6773 35.8317 94.5147 35.629 94.392C35.4263 94.2693 35.1997 94.208 34.949 94.208C34.6983 94.208 34.469 94.2693 34.261 94.392C34.0583 94.5147 33.8957 94.6773 33.773 94.88C33.6503 95.0827 33.589 95.3093 33.589 95.56V100H31.189V95.56C31.189 95.3093 31.1277 95.0827 31.005 94.88C30.8877 94.6773 30.725 94.5147 30.517 94.392C30.3143 94.2693 30.0877 94.208 29.837 94.208C29.5917 94.208 29.365 94.2693 29.157 94.392C28.9543 94.5147 28.7917 94.6773 28.669 94.88C28.5463 95.0827 28.485 95.3093 28.485 95.56V100H26.085ZM45.8915 92H48.2915V100H45.8835L45.7715 99.28C45.5742 99.5573 45.3235 99.7813 45.0195 99.952C44.7208 100.123 44.3715 100.208 43.9715 100.208C43.3742 100.208 42.8142 100.096 42.2915 99.872C41.7742 99.648 41.3182 99.3387 40.9235 98.944C40.5288 98.544 40.2195 98.0853 39.9955 97.568C39.7768 97.0453 39.6675 96.4853 39.6675 95.888C39.6675 95.3173 39.7715 94.784 39.9795 94.288C40.1875 93.792 40.4782 93.3573 40.8515 92.984C41.2302 92.6053 41.6648 92.3093 42.1555 92.096C42.6515 91.8827 43.1822 91.776 43.7475 91.776C44.2062 91.776 44.6222 91.872 44.9955 92.064C45.3742 92.2507 45.7102 92.4853 46.0035 92.768L45.8915 92ZM43.9075 97.904C44.2382 97.904 44.5395 97.8187 44.8115 97.648C45.0835 97.4773 45.2995 97.248 45.4595 96.96C45.6195 96.672 45.6995 96.352 45.6995 96C45.6995 95.648 45.6195 95.328 45.4595 95.04C45.2995 94.752 45.0835 94.5227 44.8115 94.352C44.5395 94.1813 44.2382 94.096 43.9075 94.096C43.5768 94.096 43.2755 94.1813 43.0035 94.352C42.7368 94.5227 42.5235 94.752 42.3635 95.04C42.2088 95.328 42.1315 95.648 42.1315 96C42.1315 96.352 42.2115 96.672 42.3715 96.96C42.5315 97.248 42.7448 97.4773 43.0115 97.648C43.2835 97.8187 43.5822 97.904 43.9075 97.904ZM49.9055 100L49.8975 92H52.2975L52.3055 92.504C52.5722 92.2747 52.8762 92.096 53.2175 91.968C53.5588 91.84 53.9188 91.776 54.2975 91.776C54.5855 91.776 54.8788 91.8187 55.1775 91.904L54.2335 94.336C54.0468 94.2507 53.8548 94.208 53.6575 94.208C53.4068 94.208 53.1775 94.2693 52.9695 94.392C52.7668 94.5093 52.6042 94.672 52.4815 94.88C52.3642 95.0827 52.3055 95.3093 52.3055 95.56V100H49.9055ZM63.6858 100H60.9178L59.3177 97.248L58.4538 98.272V100H56.0538V88H58.4538V94.544L60.5818 92H63.7178L60.9658 95.296L63.6858 100ZM67.7925 100.208C67.0565 100.208 66.3845 100.019 65.7765 99.64C65.1738 99.2613 64.6912 98.752 64.3285 98.112C63.9712 97.472 63.7925 96.7653 63.7925 95.992C63.7925 95.4107 63.8965 94.8667 64.1045 94.36C64.3125 93.848 64.5978 93.4 64.9605 93.016C65.3285 92.6267 65.7552 92.3227 66.2405 92.104C66.7258 91.8853 67.2432 91.776 67.7925 91.776C68.4325 91.776 69.0165 91.9173 69.5445 92.2C70.0778 92.4773 70.5258 92.856 70.8885 93.336C71.2565 93.8107 71.5178 94.3467 71.6725 94.944C71.8272 95.5413 71.8432 96.1573 71.7205 96.792H66.3845C66.4592 96.9787 66.5578 97.1493 66.6805 97.304C66.8085 97.4533 66.9632 97.5733 67.1445 97.664C67.3312 97.7547 67.5472 97.8027 67.7925 97.808C68.0272 97.8133 68.2432 97.7627 68.4405 97.656C68.6432 97.5493 68.8192 97.4053 68.9685 97.224L71.4165 97.792C71.0912 98.5013 70.6058 99.0827 69.9605 99.536C69.3152 99.984 68.5925 100.208 67.7925 100.208ZM66.2965 95.032H69.2965C69.2218 94.8027 69.1098 94.6 68.9605 94.424C68.8112 94.248 68.6352 94.1093 68.4325 94.008C68.2352 93.9067 68.0218 93.856 67.7925 93.856C67.5685 93.856 67.3552 93.9067 67.1525 94.008C66.9552 94.1093 66.7818 94.248 66.6325 94.424C66.4885 94.6 66.3765 94.8027 66.2965 95.032ZM78.8294 88H81.2294V100H78.8294V99.264C78.584 99.5413 78.2907 99.768 77.9494 99.944C77.6134 100.12 77.2294 100.208 76.7974 100.208C76.216 100.208 75.672 100.099 75.1654 99.88C74.6587 99.6613 74.2107 99.36 73.8214 98.976C73.4374 98.5867 73.136 98.1387 72.9174 97.632C72.6987 97.1253 72.5894 96.5813 72.5894 96C72.5894 95.4187 72.6987 94.8747 72.9174 94.368C73.136 93.8613 73.4374 93.416 73.8214 93.032C74.2107 92.6427 74.6587 92.3387 75.1654 92.12C75.672 91.9013 76.216 91.792 76.7974 91.792C77.2294 91.792 77.6134 91.88 77.9494 92.056C78.2907 92.2267 78.584 92.4533 78.8294 92.736V88ZM76.8294 97.904C77.16 97.904 77.4614 97.8187 77.7334 97.648C78.0054 97.4773 78.2214 97.248 78.3814 96.96C78.5414 96.672 78.6214 96.352 78.6214 96C78.6214 95.648 78.5414 95.328 78.3814 95.04C78.2214 94.752 78.0054 94.5227 77.7334 94.352C77.4614 94.1813 77.16 94.096 76.8294 94.096C76.4987 94.096 76.1974 94.1813 75.9254 94.352C75.6587 94.5227 75.4454 94.752 75.2854 95.04C75.1307 95.328 75.0534 95.648 75.0534 96C75.0534 96.352 75.1334 96.672 75.2934 96.96C75.4534 97.248 75.6667 97.4773 75.9334 97.648C76.2054 97.8187 76.504 97.904 76.8294 97.904ZM89.3913 104H86.9913V92H89.3913V92.752C89.6419 92.4693 89.9326 92.24 90.2633 92.064C90.5939 91.8827 90.9753 91.792 91.4073 91.792C91.9939 91.792 92.5406 91.9013 93.0473 92.12C93.5539 92.3387 93.9993 92.6427 94.3833 93.032C94.7726 93.416 95.0739 93.8613 95.2873 94.368C95.5059 94.8747 95.6153 95.4187 95.6153 96C95.6153 96.5813 95.5059 97.128 95.2873 97.64C95.0739 98.152 94.7726 98.6027 94.3833 98.992C93.9993 99.376 93.5539 99.6773 93.0473 99.896C92.5406 100.115 91.9939 100.224 91.4073 100.224C90.9753 100.224 90.5939 100.133 90.2633 99.952C89.9326 99.7707 89.6419 99.5413 89.3913 99.264V104ZM91.3753 94.096C91.0499 94.096 90.7513 94.184 90.4793 94.36C90.2126 94.5307 89.9993 94.76 89.8393 95.048C89.6793 95.336 89.5993 95.6533 89.5993 96C89.5993 96.352 89.6793 96.672 89.8393 96.96C89.9993 97.248 90.2126 97.4773 90.4793 97.648C90.7513 97.8187 91.0499 97.904 91.3753 97.904C91.7059 97.904 92.0073 97.8187 92.2793 97.648C92.5513 97.4773 92.7673 97.248 92.9273 96.96C93.0873 96.672 93.1673 96.352 93.1673 96C93.1673 95.6533 93.0873 95.336 92.9273 95.048C92.7673 94.76 92.5513 94.5307 92.2793 94.36C92.0073 94.184 91.7059 94.096 91.3753 94.096ZM96.8274 100L96.8194 92H99.2194L99.2274 92.504C99.494 92.2747 99.798 92.096 100.139 91.968C100.481 91.84 100.841 91.776 101.219 91.776C101.507 91.776 101.801 91.8187 102.099 91.904L101.155 94.336C100.969 94.2507 100.777 94.208 100.579 94.208C100.329 94.208 100.099 94.2693 99.8914 94.392C99.6887 94.5093 99.526 94.672 99.4034 94.88C99.286 95.0827 99.2274 95.3093 99.2274 95.56V100H96.8274ZM106.105 100.208C105.369 100.208 104.697 100.019 104.089 99.64C103.486 99.2613 103.004 98.752 102.641 98.112C102.284 97.472 102.105 96.7653 102.105 95.992C102.105 95.4107 102.209 94.8667 102.417 94.36C102.625 93.848 102.91 93.4 103.273 93.016C103.641 92.6267 104.068 92.3227 104.553 92.104C105.038 91.8853 105.556 91.776 106.105 91.776C106.745 91.776 107.329 91.9173 107.857 92.2C108.39 92.4773 108.838 92.856 109.201 93.336C109.569 93.8107 109.83 94.3467 109.985 94.944C110.14 95.5413 110.156 96.1573 110.033 96.792H104.697C104.772 96.9787 104.87 97.1493 104.993 97.304C105.121 97.4533 105.276 97.5733 105.457 97.664C105.644 97.7547 105.86 97.8027 106.105 97.808C106.34 97.8133 106.556 97.7627 106.753 97.656C106.956 97.5493 107.132 97.4053 107.281 97.224L109.729 97.792C109.404 98.5013 108.918 99.0827 108.273 99.536C107.628 99.984 106.905 100.208 106.105 100.208ZM104.609 95.032H107.609C107.534 94.8027 107.422 94.6 107.273 94.424C107.124 94.248 106.948 94.1093 106.745 94.008C106.548 93.9067 106.334 93.856 106.105 93.856C105.881 93.856 105.668 93.9067 105.465 94.008C105.268 94.1093 105.094 94.248 104.945 94.424C104.801 94.6 104.689 94.8027 104.609 95.032ZM113.67 100.144C113.265 100.107 112.876 100.019 112.502 99.88C112.129 99.7413 111.796 99.552 111.502 99.312C111.209 99.072 110.977 98.7787 110.806 98.432L112.822 97.568C112.876 97.6267 112.95 97.7013 113.046 97.792C113.142 97.8773 113.262 97.9547 113.406 98.024C113.556 98.0933 113.734 98.128 113.942 98.128C114.081 98.128 114.214 98.1147 114.342 98.088C114.476 98.056 114.582 98.0027 114.662 97.928C114.748 97.8533 114.79 97.7493 114.79 97.616C114.79 97.4667 114.734 97.3547 114.622 97.28C114.516 97.2 114.385 97.144 114.23 97.112C114.076 97.0747 113.932 97.0453 113.798 97.024C113.324 96.9493 112.868 96.8 112.43 96.576C111.998 96.3467 111.644 96.0507 111.366 95.688C111.089 95.32 110.95 94.8907 110.95 94.4C110.95 93.8507 111.092 93.376 111.374 92.976C111.657 92.576 112.025 92.2693 112.478 92.056C112.937 91.8373 113.43 91.728 113.958 91.728C114.582 91.728 115.158 91.856 115.686 92.112C116.22 92.368 116.657 92.736 116.998 93.216L115.11 94.336C115.046 94.256 114.966 94.176 114.87 94.096C114.78 94.0107 114.673 93.9387 114.55 93.88C114.433 93.816 114.305 93.776 114.166 93.76C113.98 93.744 113.812 93.752 113.662 93.784C113.518 93.8107 113.404 93.8693 113.318 93.96C113.233 94.0453 113.19 94.1707 113.19 94.336C113.19 94.4907 113.265 94.6027 113.414 94.672C113.564 94.7413 113.732 94.792 113.918 94.824C114.105 94.856 114.257 94.8907 114.374 94.928C114.833 95.0773 115.265 95.272 115.67 95.512C116.076 95.752 116.401 96.0427 116.646 96.384C116.897 96.7253 117.014 97.1253 116.998 97.584C116.998 98.1173 116.838 98.5867 116.518 98.992C116.198 99.3973 115.785 99.704 115.278 99.912C114.772 100.12 114.236 100.197 113.67 100.144ZM121.699 100.208C120.963 100.208 120.291 100.019 119.683 99.64C119.08 99.2613 118.597 98.752 118.235 98.112C117.877 97.472 117.699 96.7653 117.699 95.992C117.699 95.4107 117.803 94.8667 118.011 94.36C118.219 93.848 118.504 93.4 118.867 93.016C119.235 92.6267 119.661 92.3227 120.147 92.104C120.632 91.8853 121.149 91.776 121.699 91.776C122.339 91.776 122.923 91.9173 123.451 92.2C123.984 92.4773 124.432 92.856 124.795 93.336C125.163 93.8107 125.424 94.3467 125.579 94.944C125.733 95.5413 125.749 96.1573 125.627 96.792H120.291C120.365 96.9787 120.464 97.1493 120.587 97.304C120.715 97.4533 120.869 97.5733 121.051 97.664C121.237 97.7547 121.453 97.8027 121.699 97.808C121.933 97.8133 122.149 97.7627 122.347 97.656C122.549 97.5493 122.725 97.4053 122.875 97.224L125.323 97.792C124.997 98.5013 124.512 99.0827 123.867 99.536C123.221 99.984 122.499 100.208 121.699 100.208ZM120.203 95.032H123.203C123.128 94.8027 123.016 94.6 122.867 94.424C122.717 94.248 122.541 94.1093 122.339 94.008C122.141 93.9067 121.928 93.856 121.699 93.856C121.475 93.856 121.261 93.9067 121.059 94.008C120.861 94.1093 120.688 94.248 120.539 94.424C120.395 94.6 120.283 94.8027 120.203 95.032ZM134.41 94.888V100H132.01V95.56C132.01 95.3093 131.948 95.0827 131.826 94.88C131.703 94.672 131.54 94.5093 131.338 94.392C131.135 94.2693 130.908 94.208 130.658 94.208C130.407 94.208 130.178 94.2693 129.97 94.392C129.767 94.5093 129.604 94.672 129.482 94.88C129.364 95.0827 129.306 95.3093 129.306 95.56V100H126.906L126.898 92H129.298L129.306 92.504C129.572 92.2747 129.876 92.096 130.218 91.968C130.559 91.84 130.919 91.776 131.298 91.776C131.874 91.776 132.396 91.9173 132.866 92.2C133.335 92.4773 133.708 92.8507 133.986 93.32C134.268 93.7893 134.41 94.312 134.41 94.888ZM140.407 94.4H139.047V100H136.647V94.4H135.607V92H136.647V89.488H139.047V92H140.407V94.4ZM141.723 96.64V88.8H143.723V96.64H141.723ZM142.731 100.208C142.395 100.208 142.109 100.091 141.875 99.856C141.645 99.6213 141.531 99.3333 141.531 98.992C141.531 98.6613 141.645 98.3813 141.875 98.152C142.109 97.9227 142.395 97.808 142.731 97.808C143.061 97.808 143.341 97.9227 143.571 98.152C143.8 98.3813 143.915 98.6613 143.915 98.992C143.915 99.3333 143.8 99.6213 143.571 99.856C143.341 100.091 143.061 100.208 142.731 100.208Z" fill="white"/>
<defs>
<filter id="filter0_i_28_809" x="0" y="0" width="193" height="194" filterUnits="userSpaceOnUse" color-interpolation-filters="sRGB">
<feFlood flood-opacity="0" result="BackgroundImageFix"/>
<feBlend mode="normal" in="SourceGraphic" in2="BackgroundImageFix" result="shape"/>
<feColorMatrix in="SourceAlpha" type="matrix" values="0 0 0 0 0 0 0 0 0 0 0 0 0 0 0 0 0 0 127 0" result="hardAlpha"/>
<feOffset dx="23" dy="24"/>
<feGaussianBlur stdDeviation="20.4"/>
<feComposite in2="hardAlpha" operator="arithmetic" k2="-1" k3="1"/>
<feColorMatrix type="matrix" values="0 0 0 0 0 0 0 0 0 0 0 0 0 0 0 0 0 0 0.59 0"/>
<feBlend mode="normal" in2="shape" result="effect1_innerShadow_28_809"/>
</filter>
<linearGradient id="paint0_linear_28_809" x1="85" y1="0" x2="85" y2="170" gradientUnits="userSpaceOnUse">
<stop stop-color="#010E4A"/>
<stop offset="1" stop-color="#010E4A"/>
</linearGradient>
</defs>
</svg>
