<svg width="40" height="40" viewBox="0 0 40 40" fill="none" xmlns="http://www.w3.org/2000/svg">
<circle cx="20" cy="20" r="20" fill="#010E4A"/>
<g clip-path="url(#clip0_8_230)">
<path fill-rule="evenodd" clip-rule="evenodd" d="M19.5 15.1667C17.2936 15.1667 15.3335 16.1618 13.9378 17.3936C13.2379 18.0119 12.66 18.7054 12.2531 19.3973C11.8525 20.0758 11.5833 20.8112 11.5833 21.5C11.5833 22.1887 11.8525 22.9242 12.2531 23.6027C12.66 24.2938 13.2371 24.9881 13.9378 25.6064C15.3335 26.8382 17.2944 27.8333 19.5 27.8333C21.7064 27.8333 23.6666 26.8382 25.0623 25.6064C25.7629 24.9881 26.34 24.2938 26.7469 23.6027C27.1475 22.9242 27.4167 22.1887 27.4167 21.5C27.4167 20.8112 27.1475 20.0758 26.7469 19.3973C26.34 18.7062 25.7629 18.0119 25.0623 17.3936C23.6666 16.1618 21.7056 15.1667 19.5 15.1667ZM21.0833 21.5C21.3683 21.5 21.6351 21.4248 21.8663 21.2934C21.9085 21.7788 21.8003 22.2655 21.5565 22.6874C21.3127 23.1093 20.945 23.446 20.5033 23.6518C20.0616 23.8576 19.5673 23.9225 19.0875 23.8379C18.6076 23.7532 18.1654 23.5229 17.8208 23.1784C17.4763 22.8338 17.246 22.3916 17.1614 21.9117C17.0767 21.4319 17.1416 20.9376 17.3474 20.4959C17.5533 20.0542 17.8899 19.6865 18.3118 19.4427C18.7337 19.1989 19.2204 19.0907 19.7058 19.1329C19.5686 19.3739 19.497 19.6466 19.4983 19.9239C19.4995 20.2013 19.5736 20.4734 19.7131 20.713C19.8526 20.9527 20.0526 21.1516 20.293 21.2897C20.5335 21.4278 20.806 21.5003 21.0833 21.5Z" fill="white"/>
</g>
<defs>
<clipPath id="clip0_8_230">
<rect width="19" height="19" fill="white" transform="translate(10 12)"/>
</clipPath>
</defs>
</svg>
