<svg width="170" height="170" viewBox="0 0 170 170" fill="none" xmlns="http://www.w3.org/2000/svg">
<g filter="url(#filter0_i_28_800)">
<circle cx="85" cy="85" r="85" fill="url(#paint0_radial_28_800)"/>
</g>
<path d="M38.74 96V75.7H46.222C47.3337 75.7 48.3342 75.9803 49.2235 76.541C50.1225 77.1017 50.8378 77.8508 51.3695 78.7885C51.9012 79.7165 52.167 80.7412 52.167 81.8625C52.167 83.0032 51.8963 84.0423 51.355 84.98C50.8137 85.908 50.0887 86.6475 49.18 87.1985C48.281 87.7495 47.295 88.025 46.222 88.025H42.742V96H38.74ZM42.742 84.023H45.7725C46.2172 84.023 46.6183 83.9167 46.976 83.704C47.3337 83.4817 47.6188 83.1868 47.8315 82.8195C48.0538 82.4425 48.165 82.0268 48.165 81.5725C48.165 81.1278 48.0538 80.7218 47.8315 80.3545C47.6188 79.9775 47.3337 79.6778 46.976 79.4555C46.6183 79.2332 46.2172 79.122 45.7725 79.122H42.742V84.023ZM54.3307 96L54.3162 81.5H58.3182L58.3327 82.573C58.816 82.109 59.3815 81.7465 60.0292 81.4855C60.6865 81.2245 61.3777 81.094 62.1027 81.094C62.6343 81.094 63.166 81.1713 63.6977 81.326L62.1172 85.3715C61.7692 85.2265 61.4163 85.154 61.0587 85.154C60.556 85.154 60.0968 85.2748 59.6812 85.5165C59.2655 85.7582 58.9368 86.0868 58.6952 86.5025C58.4535 86.9085 58.3327 87.3677 58.3327 87.88V96H54.3307ZM70.9764 96.377C69.6424 96.377 68.4244 96.0338 67.3224 95.3475C66.2301 94.6612 65.3553 93.738 64.6979 92.578C64.0503 91.418 63.7264 90.1372 63.7264 88.7355C63.7264 87.6818 63.9149 86.6958 64.2919 85.7775C64.6689 84.8495 65.1861 84.0375 65.8434 83.3415C66.5104 82.6358 67.2838 82.0848 68.1634 81.6885C69.0431 81.2922 69.9808 81.094 70.9764 81.094C72.1268 81.094 73.1756 81.3405 74.1229 81.8335C75.0799 82.3265 75.8871 82.9983 76.5444 83.849C77.2114 84.6997 77.6851 85.6615 77.9654 86.7345C78.2554 87.8075 78.3038 88.924 78.1104 90.084H68.0474C68.1731 90.5093 68.3664 90.896 68.6274 91.244C68.8981 91.5823 69.2268 91.853 69.6134 92.056C70.0098 92.259 70.4641 92.3653 70.9764 92.375C71.4791 92.3847 71.9431 92.2687 72.3684 92.027C72.7938 91.7853 73.1563 91.4615 73.4559 91.0555L77.5449 91.998C76.9553 93.2837 76.0756 94.3373 74.9059 95.159C73.7363 95.971 72.4264 96.377 70.9764 96.377ZM67.9024 87.126H74.0649C73.9393 86.6427 73.7266 86.2077 73.4269 85.821C73.1273 85.4343 72.7648 85.1298 72.3394 84.9075C71.9238 84.6852 71.4694 84.574 70.9764 84.574C70.4931 84.574 70.0388 84.6852 69.6134 84.9075C69.1978 85.1298 68.8401 85.4343 68.5404 85.821C68.2504 86.198 68.0378 86.633 67.9024 87.126ZM84.7603 96.261C84.0159 96.203 83.3006 96.0483 82.6143 95.797C81.9279 95.536 81.3141 95.188 80.7728 94.753C80.2411 94.3083 79.8254 93.7767 79.5258 93.158L82.8898 91.708C82.9961 91.8627 83.1556 92.0318 83.3683 92.2155C83.5809 92.3895 83.8371 92.5442 84.1368 92.6795C84.4461 92.8148 84.8038 92.8825 85.2098 92.8825C85.5094 92.8825 85.7994 92.8487 86.0798 92.781C86.3601 92.7037 86.5873 92.5828 86.7613 92.4185C86.9353 92.2445 87.0223 92.0173 87.0223 91.737C87.0223 91.4277 86.9111 91.1908 86.6888 91.0265C86.4664 90.8622 86.1958 90.7413 85.8768 90.664C85.5674 90.577 85.2678 90.5045 84.9778 90.4465C84.0884 90.2918 83.2474 90.0163 82.4548 89.62C81.6718 89.214 81.0338 88.692 80.5408 88.054C80.0478 87.416 79.8013 86.6523 79.8013 85.763C79.8013 84.7867 80.0574 83.9457 80.5698 83.24C81.0821 82.5247 81.7491 81.9737 82.5708 81.587C83.3924 81.2003 84.2818 81.007 85.2388 81.007C86.3698 81.007 87.4186 81.2438 88.3853 81.7175C89.3519 82.1912 90.1301 82.8582 90.7198 83.7185L87.5588 85.589C87.4331 85.4053 87.2688 85.2313 87.0658 85.067C86.8724 84.893 86.6453 84.748 86.3843 84.632C86.1329 84.5063 85.8623 84.4338 85.5723 84.4145C85.1953 84.3855 84.8521 84.4097 84.5428 84.487C84.2334 84.5547 83.9869 84.6852 83.8033 84.8785C83.6293 85.0718 83.5423 85.3328 83.5423 85.6615C83.5423 85.9805 83.6824 86.2173 83.9628 86.372C84.2431 86.517 84.5669 86.6282 84.9343 86.7055C85.3016 86.7732 85.6254 86.8553 85.9058 86.952C86.7468 87.2227 87.5346 87.5707 88.2693 87.996C89.0136 88.4117 89.6129 88.924 90.0673 89.533C90.5216 90.142 90.7343 90.8573 90.7053 91.679C90.7053 92.636 90.4201 93.477 89.8498 94.202C89.2794 94.9173 88.5399 95.4635 87.6313 95.8405C86.7323 96.2078 85.7753 96.348 84.7603 96.261ZM99.2684 96.377C97.9344 96.377 96.7164 96.0338 95.6144 95.3475C94.5221 94.6612 93.6473 93.738 92.9899 92.578C92.3423 91.418 92.0184 90.1372 92.0184 88.7355C92.0184 87.6818 92.2069 86.6958 92.5839 85.7775C92.9609 84.8495 93.4781 84.0375 94.1354 83.3415C94.8024 82.6358 95.5758 82.0848 96.4554 81.6885C97.3351 81.2922 98.2728 81.094 99.2684 81.094C100.419 81.094 101.468 81.3405 102.415 81.8335C103.372 82.3265 104.179 82.9983 104.836 83.849C105.503 84.6997 105.977 85.6615 106.257 86.7345C106.547 87.8075 106.596 88.924 106.402 90.084H96.3394C96.4651 90.5093 96.6584 90.896 96.9194 91.244C97.1901 91.5823 97.5188 91.853 97.9054 92.056C98.3018 92.259 98.7561 92.3653 99.2684 92.375C99.7711 92.3847 100.235 92.2687 100.66 92.027C101.086 91.7853 101.448 91.4615 101.748 91.0555L105.837 91.998C105.247 93.2837 104.368 94.3373 103.198 95.159C102.028 95.971 100.718 96.377 99.2684 96.377ZM96.1944 87.126H102.357C102.231 86.6427 102.019 86.2077 101.719 85.821C101.419 85.4343 101.057 85.1298 100.631 84.9075C100.216 84.6852 99.7614 84.574 99.2684 84.574C98.7851 84.574 98.3308 84.6852 97.9054 84.9075C97.4898 85.1298 97.1321 85.4343 96.8324 85.821C96.5424 86.198 96.3298 86.633 96.1944 87.126ZM122.19 86.778V96H118.188V87.88C118.188 87.3677 118.062 86.9085 117.811 86.5025C117.569 86.0868 117.241 85.7582 116.825 85.5165C116.419 85.2748 115.965 85.154 115.462 85.154C114.959 85.154 114.5 85.2748 114.084 85.5165C113.669 85.7582 113.34 86.0868 113.098 86.5025C112.857 86.9085 112.736 87.3677 112.736 87.88V96H108.734L108.719 81.5H112.721L112.736 82.573C113.219 82.109 113.785 81.7465 114.432 81.4855C115.09 81.2245 115.781 81.094 116.506 81.094C117.56 81.094 118.512 81.3502 119.362 81.8625C120.223 82.3748 120.909 83.0612 121.421 83.9215C121.934 84.7722 122.19 85.7243 122.19 86.778ZM132.977 85.502H130.367V96H126.365V85.502H124.364V81.5H126.365V76.947H130.367V81.5H132.977V85.502Z" fill="white"/>
<defs>
<filter id="filter0_i_28_800" x="0" y="0" width="187" height="187" filterUnits="userSpaceOnUse" color-interpolation-filters="sRGB">
<feFlood flood-opacity="0" result="BackgroundImageFix"/>
<feBlend mode="normal" in="SourceGraphic" in2="BackgroundImageFix" result="shape"/>
<feColorMatrix in="SourceAlpha" type="matrix" values="0 0 0 0 0 0 0 0 0 0 0 0 0 0 0 0 0 0 127 0" result="hardAlpha"/>
<feOffset dx="17" dy="17"/>
<feGaussianBlur stdDeviation="9.5"/>
<feComposite in2="hardAlpha" operator="arithmetic" k2="-1" k3="1"/>
<feColorMatrix type="matrix" values="0 0 0 0 0 0 0 0 0 0 0 0 0 0 0 0 0 0 0.25 0"/>
<feBlend mode="normal" in2="shape" result="effect1_innerShadow_28_800"/>
</filter>
<radialGradient id="paint0_radial_28_800" cx="0" cy="0" r="1" gradientUnits="userSpaceOnUse" gradientTransform="translate(85 85) rotate(90) scale(85)">
<stop stop-color="#009E19" stop-opacity="0.47"/>
<stop offset="1" stop-color="#00A31A"/>
</radialGradient>
</defs>
</svg>
