<svg width="342" height="297" viewBox="0 0 342 297" fill="none" xmlns="http://www.w3.org/2000/svg">
<g clip-path="url(#clip0_8_136)">
<path d="M342 127.045C342.023 146.362 338.712 165.54 332.211 183.749C332.183 183.833 332.154 183.91 332.122 183.995V183.999C327.254 197.545 320.661 210.42 312.503 222.309C311.09 224.38 309.626 226.418 308.113 228.422C306.447 230.638 304.729 232.809 302.958 234.937C301.326 236.899 299.649 238.824 297.93 240.711C295.887 242.959 293.783 245.15 291.618 247.283C286.523 252.317 281.112 257.027 275.42 261.385C274.42 262.155 273.41 262.911 272.39 263.654C270.013 265.394 267.59 267.073 265.119 268.69C259.684 272.254 254.046 275.505 248.234 278.425C247.231 278.933 246.22 279.432 245.204 279.916C241.277 281.798 237.269 283.529 233.181 285.11C232.016 285.565 230.846 286.004 229.664 286.427C229.465 286.504 229.266 286.576 229.063 286.645C215.047 291.663 200.426 294.83 185.578 296.065C184.546 296.158 183.513 296.236 182.478 296.299C181.382 296.376 180.284 296.437 179.184 296.484C178.315 296.529 177.45 296.561 176.577 296.585C176.398 296.593 176.215 296.601 176.037 296.601C174.863 296.637 173.685 296.66 172.503 296.67C172.003 296.674 171.504 296.678 171 296.678C170.764 296.678 170.529 296.678 170.293 296.674C166.885 296.662 163.503 296.551 160.147 296.343C160.078 296.339 160.009 296.331 159.94 296.331C158.738 296.251 157.539 296.166 156.345 296.061C152.092 295.707 147.886 295.196 143.725 294.53C142.767 294.381 141.811 294.22 140.858 294.047C136.719 293.321 132.634 292.447 128.603 291.423C127.405 291.121 126.214 290.806 125.029 290.477C108.559 285.925 92.8743 278.935 78.5056 269.742C76.0361 268.166 73.6125 266.528 71.2351 264.826C70.9426 264.625 70.6542 264.415 70.3658 264.206C64.5906 260.029 59.0843 255.498 53.8792 250.639C51.4137 248.342 49.02 245.973 46.698 243.531C16.6521 212.078 -0.0654105 170.377 -5.32252e-05 127.045C-5.32252e-05 33.3594 76.56 -42.5887 171 -42.5887C265.44 -42.5887 342 33.3594 342 127.045Z" fill="#F2F2F2"/>
<path d="M191.861 0.656781C195.285 -4.96064 199.342 -10.9584 205.696 -12.7926C213.054 -14.9168 220.612 -10.6971 227.024 -6.53304C246.198 5.92022 264.662 19.416 282.333 33.8925L282.314 34.1106C268.556 33.1694 254.799 32.2283 241.041 31.2871C231.101 30.6071 220.82 29.8333 212.036 25.1688C208.703 23.3987 205.454 21.0343 201.676 20.8695C196.984 20.6649 192.892 23.9161 189.676 27.3128C170.655 47.4058 165.151 78.1327 143.811 95.7859C157.267 62.8659 173.334 31.0564 191.861 0.656781Z" fill="white"/>
<path d="M74.9416 171.082C77.045 168.447 77.9045 167.83 79.9793 165.17C96.8735 143.495 112.753 121.087 127.617 97.9478C137.713 82.2322 147.309 66.2148 156.404 49.8957C160.733 42.1373 164.945 34.3181 169.037 26.438C172.213 20.328 175.318 14.1814 178.352 7.99826C179.219 6.23222 180.063 4.45808 180.901 2.67987C182.878 -1.50175 184.818 -5.70366 186.901 -9.82846C189.275 -14.5297 192.164 -19.4584 196.523 -22.6169C198.506 -24.1134 200.878 -25.0188 203.361 -25.2274C206.91 -25.4547 210.184 -24.0013 213.261 -22.4139C235.778 -10.7663 256.859 3.83693 275.926 20.4538C295.042 37.108 312.129 55.9232 326.837 76.516C327.287 77.1534 328.352 76.5444 327.897 75.903C326.109 73.394 324.285 70.9121 322.426 68.4573C306.995 48.0854 289.199 29.5873 269.407 13.345C259.608 5.30195 249.347 -2.17118 238.676 -9.03679C233.245 -12.5282 227.712 -15.8559 222.077 -19.0199C219.236 -20.6154 216.384 -22.1906 213.482 -23.6684C210.638 -25.1178 207.618 -26.421 204.368 -26.4697C193.31 -26.6402 187.585 -14.2171 183.652 -5.85794C182.416 -3.22718 181.165 -0.604527 179.899 2.01001C175.115 11.9363 170.146 21.7719 164.994 31.5169C161.814 37.5335 158.564 43.515 155.245 49.4613C144.916 67.9782 133.937 86.1202 122.309 103.887C106.904 127.422 91.6227 148.213 74.0739 170.221C73.5909 170.83 74.4544 171.699 74.9416 171.082Z" fill="white"/>
<path d="M136.144 72.2927L119.669 66.315L111.489 63.347C108.825 62.3804 106.167 61.28 103.413 60.5879C100.978 59.9759 98.5041 59.8758 96.1035 60.6802C93.9854 61.458 92.0465 62.6503 90.4022 64.1862C88.7223 65.7208 87.1593 67.3767 85.7259 69.1402C83.945 71.2634 82.1903 73.4089 80.4278 75.5471C73.1536 84.3721 65.927 93.2354 58.7479 102.137C51.569 111.038 44.4381 119.978 37.3552 128.955C30.255 137.954 23.2036 146.99 16.2011 156.065C15.3432 157.176 14.4861 158.288 13.6298 159.401C13.1567 160.016 12.0898 159.41 12.5697 158.786C19.6239 149.621 26.7273 140.493 33.8798 131.402C41.05 122.29 48.2697 113.217 55.5389 104.182C62.808 95.147 70.1262 86.1514 77.4936 77.1951C79.329 74.9637 81.1674 72.7349 83.0089 70.5085C84.5623 68.6305 86.0981 66.7322 87.8019 64.9842C90.9293 61.7756 94.8366 58.94 99.5136 58.8631C102.263 58.8179 104.925 59.6835 107.48 60.6004C110.234 61.5888 112.982 62.5958 115.732 63.5939L132.323 69.6134L136.471 71.1183C137.207 71.3853 136.889 72.5628 136.144 72.2927Z" fill="white"/>
<path d="M91.0225 72.3525C92.6443 70.3941 94.3977 68.3436 96.8235 67.5482L99.0882 67.6368C81.8482 97.857 58.5642 124.263 30.6655 145.235C50.7845 120.941 70.9035 96.6466 91.0225 72.3525Z" fill="white"/>
<path d="M201.156 41.0644C201.157 44.1523 200.394 47.1934 198.933 49.9205C197.473 52.6477 195.361 54.9776 192.781 56.7057C190.201 58.4338 187.233 59.5072 184.137 59.8318C181.042 60.1564 177.913 59.7222 175.026 58.5673C172.139 57.4124 169.582 55.5722 167.58 53.2081C165.577 50.844 164.19 48.0284 163.54 45.0084C162.891 41.9885 162.998 38.8565 163.854 35.8874C164.709 32.9183 166.286 30.2029 168.446 27.9795C168.477 27.9494 168.507 27.9192 168.538 27.8891C168.69 27.7305 168.842 27.5721 169.002 27.4211C169.003 27.4211 169.004 27.421 169.005 27.4206C169.005 27.4202 169.006 27.4196 169.007 27.4189C169.008 27.4182 169.008 27.4174 169.009 27.4165C169.009 27.4155 169.009 27.4146 169.009 27.4136C169.207 27.2325 169.405 27.0514 169.61 26.8778C172.358 24.4879 175.742 22.9343 179.357 22.403C182.972 21.8717 186.665 22.3852 189.993 23.8821C193.322 25.3789 196.145 27.7957 198.125 30.843C200.104 33.8903 201.156 37.4391 201.156 41.0644Z" fill="#2F2E41"/>
<path d="M188.729 56.615C194.957 50.4372 194.957 40.4211 188.729 34.2434C182.502 28.0656 172.405 28.0656 166.177 34.2434C159.95 40.4211 159.95 50.4372 166.177 56.615C172.405 62.7927 182.502 62.7927 188.729 56.615Z" fill="#9E616A"/>
<path d="M188.847 30.2166C186.377 27.9233 183.304 26.368 179.983 25.7294C176.661 25.0908 173.225 25.3947 170.07 26.6063C169.976 26.6426 169.883 26.6829 169.79 26.7272C169.786 26.7272 169.786 26.7312 169.781 26.7312C169.477 26.8561 169.168 26.9851 168.872 27.1261L168.689 27.2147V27.2389C168.656 27.2631 168.62 27.2913 168.583 27.3155C168.509 27.3846 168.418 27.4344 168.319 27.4605C165.253 27.5008 162.755 28.5323 160.902 30.5268C158.429 33.1862 157.267 37.4854 157.625 42.6349L157.633 42.792L157.771 42.8806C159.079 43.6905 160.318 44.4037 161.512 45.0282C162.218 45.403 162.905 45.7455 163.587 46.0597C163.669 46.096 163.75 46.1363 163.831 46.1726C170.736 49.3356 177.052 49.9077 183.12 47.9052L183.234 47.8689L185.813 43.5817C186.079 45.0464 186.789 46.3957 187.849 47.4492C188.909 48.5026 190.267 49.2099 191.743 49.4766L192.816 49.666L194.388 49.94L194.453 49.6458C196.012 42.6751 193.758 34.8704 188.847 30.2166Z" fill="#2F2E41"/>
<path d="M228.022 63.4184C222.595 60.6399 229.574 50.5555 228.172 44.6595C226.77 38.7634 216.67 36.8671 216.027 30.8428C215.384 24.8186 213.87 18.6052 209.863 14.0339C207.302 11.1129 203.529 8.95649 199.644 9.32236C198.33 9.44615 197.058 9.84951 195.915 10.505C194.772 11.1604 193.784 12.0525 193.02 13.1206C192.256 14.1887 191.733 15.4076 191.486 16.6943C191.24 17.981 191.276 19.3054 191.592 20.5771C190.486 19.0224 187.623 19.3593 186.915 21.1277C186.285 22.6998 187.676 24.6041 189.314 24.7432C191.457 27.3684 193.911 30.1544 197.268 30.6839C198.349 30.8545 199.565 30.7295 200.355 29.9771C201.144 29.2247 201.206 27.7205 200.269 27.1582C204.488 28.8207 206.961 33.3457 207.587 37.806C208.213 42.2663 207.347 46.7791 206.776 51.2467C206.206 55.7142 205.96 60.4139 207.726 64.5625C209.812 69.4642 214.615 72.9773 219.857 74.104C225.099 75.2306 230.682 74.1295 235.427 71.6487C240.172 69.1677 244.129 65.3803 247.361 61.1342C241.793 65.0562 234.09 66.5256 228.022 63.4184Z" fill="#2F2E41"/>
<path d="M166.367 129.866L155.352 204.48L215.478 199.984L197.481 126.582L166.367 129.866Z" fill="#FFB8B8"/>
<path d="M229.266 285.883C229.212 286.141 229.145 286.395 229.063 286.645C222.124 289.133 215.028 291.167 207.82 292.733C206.301 287.777 203.388 278.393 200.838 270.717C198.754 264.451 196.914 259.326 196.272 258.685C194.489 256.925 196.272 254.576 196.272 254.576L188.656 231.089L185.196 220.419L184.01 242.834L182.288 275.302L182.239 276.213C182.239 276.213 179.867 283.26 181.053 284.437C182.239 285.613 179.867 290.315 179.867 290.315L179.184 296.484C178.315 296.529 177.45 296.561 176.577 296.585L176.28 296.678L176.037 296.601C174.863 296.637 173.685 296.66 172.503 296.67C172.003 296.674 171.504 296.678 171 296.678C170.764 296.678 170.529 296.678 170.293 296.674C166.885 296.662 163.503 296.551 160.147 296.343L158.063 279.521L155.911 262.139C155.911 262.139 158.279 257.444 155.911 255.095C154.485 253.681 155.2 251.626 156 250.216C155.504 248.036 154.826 244.684 153.912 239.72C153.88 239.554 153.851 239.385 153.819 239.216C153.53 237.64 153.272 236.096 153.043 234.582C152.637 231.919 152.32 229.36 152.076 226.91C151.25 218.976 151.136 210.984 151.735 203.029C151.963 200.2 152.247 198.129 152.434 196.933C152.45 196.82 152.625 196.187 152.909 195.188C153.356 193.588 154.091 191.05 154.915 188.209C155.354 186.702 155.817 185.111 156.276 183.527C157.076 180.783 157.872 178.063 158.514 175.863V175.851C159.079 173.921 159.53 172.398 159.765 171.6C159.879 171.21 159.94 170.996 159.94 170.996C159.94 170.996 160.066 170.968 160.305 170.915C161.049 170.746 162.885 170.339 165.427 169.795C168.08 169.239 171.496 168.534 175.249 167.817C178.461 167.204 181.922 166.58 185.362 166.02C186.597 165.822 187.832 165.629 189.05 165.448C196.577 164.336 203.486 163.703 206.76 164.424C206.986 164.472 207.21 164.533 207.43 164.606C207.652 164.678 207.866 164.774 208.068 164.892C208.169 164.952 209.152 168.756 210.407 173.712C210.419 173.76 210.432 173.812 210.444 173.861C210.821 175.36 211.224 176.955 211.634 178.587C212.052 180.251 212.475 181.948 212.889 183.6C214.12 188.507 215.257 193.048 215.842 195.272C216.065 196.135 216.211 196.646 216.244 196.703C217.617 198.971 218.738 204.532 219.648 211.506C220.46 217.732 221.106 225.085 221.605 232.229C221.853 235.763 222.064 239.248 222.243 242.52C222.848 253.528 223.092 262.122 223.092 262.122C223.092 262.122 223.998 269.287 225.797 272.667C226.019 273.104 226.302 273.507 226.638 273.864C227.836 275.052 227.974 276.084 227.816 276.817C227.747 277.163 227.602 277.491 227.393 277.776C227.346 277.846 227.293 277.912 227.235 277.974C227.08 278.703 227.107 279.458 227.314 280.175C227.521 280.891 227.901 281.546 228.421 282.084C229.571 283.232 229.477 284.876 229.266 285.883Z" fill="#2F2E41"/>
<path d="M209.57 105.935C209.501 105.427 209.428 104.916 209.351 104.4C209.306 104.069 209.254 103.739 209.205 103.413C208.689 100.117 210.838 97.2962 208.055 95.0156C207.405 94.4905 206.875 93.8339 206.5 93.0896L205.862 91.8164L204.688 89.4552L202.121 84.3219L201.678 83.4395C201.553 83.1888 201.409 82.9478 201.248 82.7182C200.768 82.0271 200.143 81.447 199.416 81.0179L193.039 77.2465C192.054 76.6665 191.26 75.8136 190.756 74.7926L190.598 74.4703C189.895 73.0399 188.636 69.619 187.145 68.1322L187.141 68.1282C186.817 67.7598 186.376 67.5113 185.89 67.4231L179.542 66.7985C178.527 66.6962 177.502 66.8574 176.568 67.2664C175.635 67.6754 174.824 68.3181 174.217 69.1315L174.042 69.9172L173.023 74.5227L172.966 74.5348C172.665 74.6033 172.365 74.6717 172.068 74.7564C165.484 76.5413 162.738 99.3753 162.738 99.3753C162.738 99.3753 158.128 106.922 159.94 111.592L163.173 119.123C163.198 119.18 163.217 119.239 163.23 119.3C163.522 120.12 163.625 120.994 163.53 121.859L163.535 122.153L163.543 122.802L163.567 124.466L163.644 129.986L163.742 136.896L163.827 142.783L163.855 144.35L158.53 167.337C158.443 168.093 158.507 168.858 158.718 169.588C158.929 170.319 159.284 171.002 159.761 171.596L159.765 171.6C159.882 171.749 160.007 171.892 160.139 172.028L160.143 172.032C160.269 172.16 160.399 172.277 160.533 172.394C161.174 172.951 161.93 173.361 162.748 173.597C163.567 173.833 164.427 173.889 165.269 173.76L165.98 173.651H165.984L176.301 172.116H176.309L177.503 171.939H177.511L189.059 170.218H189.067L191.045 169.92C191.203 169.9 191.358 169.88 191.516 169.868L202.089 169.147C202.331 169.13 202.573 169.099 202.812 169.054H202.816C203.745 168.871 204.617 168.47 205.357 167.883C206.097 167.296 206.684 166.541 207.068 165.681C207.228 165.337 207.349 164.976 207.43 164.606C207.522 164.205 207.572 163.796 207.58 163.385L207.698 153.505L208.1 121.577C208.108 120.511 208.415 119.469 208.986 118.567C210.452 116.246 210.285 111.274 209.57 105.935Z" fill="#343D68"/>
<path d="M191.844 191.208C191.695 190.394 191.728 189.557 191.941 188.757C192.153 187.957 192.54 187.213 193.074 186.577C193.608 185.941 194.275 185.429 195.03 185.077C195.785 184.725 196.609 184.541 197.443 184.539L204.039 165.517L210.471 173.797L203.221 190.591C203.132 191.982 202.532 193.291 201.534 194.272C200.536 195.253 199.211 195.837 197.809 195.913C196.406 195.989 195.024 195.552 193.925 194.685C192.826 193.818 192.085 192.581 191.844 191.208Z" fill="#9E616A"/>
<path d="M217.012 151.188L215.529 154.895L213.458 177.826C212.814 177.986 212.199 178.243 211.634 178.587C210.406 179.341 209.47 180.484 208.98 181.831C208.49 183.179 208.473 184.651 208.933 186.009L209.542 187.822L205.013 186.44L197.568 184.172L188.79 181.496L190.277 176.714C190.621 175.615 190.691 174.449 190.48 173.318C190.269 172.186 189.784 171.123 189.067 170.218C188.889 169.993 188.698 169.779 188.494 169.578L189.05 165.448L189.379 162.994L185.362 166.02L177.507 171.939H177.503L176.463 172.725C176.463 172.725 176.406 172.515 176.301 172.116C176.102 171.347 175.728 169.872 175.249 167.817C172.875 157.577 171.127 147.204 170.013 136.755C169.769 134.402 169.558 131.992 169.387 129.547C169.213 127.028 169.083 124.474 169.014 121.903C168.429 100.979 171.67 79.0435 185.216 67.826C185.871 67.8305 186.522 67.9337 187.145 68.1322C192.629 69.8044 198.644 77.9758 202.804 83.8223C203.786 85.2043 204.664 86.4534 205.407 87.4567L207.207 89.8864C209.663 93.2061 211.364 97.0157 212.19 101.052C212.365 101.906 212.502 102.771 212.601 103.646L214.566 121.585V126.206L217.012 151.188Z" fill="#343D68"/>
<path d="M9.90651 183.345C13.4351 187.492 17.2516 191.39 21.3282 195.01L320.915 195.412C324.992 191.793 328.808 187.895 332.337 183.748L9.90651 183.345Z" fill="#CCCCCC"/>
<path d="M172.503 296.67C172.003 296.674 171.504 296.678 171 296.678C170.764 296.678 170.529 296.678 170.293 296.674C166.885 296.662 163.503 296.551 160.147 296.343L160.228 297L159.94 296.331L153.502 281.463L158.063 279.521L166.431 275.955L168.969 284.614L171.398 292.906L172.121 295.364L172.503 296.67Z" fill="#FFB6B6"/>
<path d="M142.677 279.408L140.858 294.047C136.719 293.321 132.634 292.447 128.603 291.423V279.412L142.677 279.408Z" fill="#FFB6B6"/>
<path d="M78.5057 252.428V269.742C76.0361 268.166 73.6126 266.528 71.2351 264.826V252.428H78.5057Z" fill="#CACACA"/>
<path d="M106.674 249.543V258.194C106.673 259.787 106.035 261.316 104.9 262.443C103.764 263.57 102.224 264.204 100.618 264.206H70.3659C64.5907 260.029 59.0844 255.498 53.8792 250.639C51.4137 248.342 49.02 245.973 46.698 243.531H100.618C102.224 243.533 103.764 244.168 104.899 245.295C106.035 246.422 106.673 247.95 106.674 249.543Z" fill="#3F3D56"/>
<path d="M177.572 296.271L176.577 296.585L176.28 296.678L176.037 296.601C174.863 296.637 173.685 296.66 172.503 296.67C172.003 296.674 171.504 296.678 171 296.678C170.764 296.678 170.529 296.678 170.293 296.674C166.885 296.662 163.503 296.551 160.147 296.343L160.228 297L159.94 296.331C158.738 296.251 157.539 296.166 156.345 296.061L146.893 280.359L127.442 248.048L125.187 244.305C125.187 244.305 117.499 246.561 106.617 248.725C98.4164 250.361 88.4042 251.936 78.5056 252.452C76.0645 252.581 73.6315 252.646 71.2351 252.625C65.0409 252.585 59.0904 252.009 53.8792 250.639C51.4137 248.342 49.02 245.973 46.698 243.531C42.7398 239.379 38.9955 235.031 35.4795 230.505C35.4321 228.843 35.5177 227.181 35.7353 225.532C35.7719 225.258 35.8084 224.98 35.8531 224.698L36.962 206.019L45.1992 204.939L57.7338 203.295L71.3123 201.514L72.807 213.126C72.807 213.126 83.3798 212.594 96.7754 212.772C118.291 213.062 147.08 215.189 150.98 224.32C151.345 225.178 151.711 226.044 152.076 226.91C159.647 244.901 166.601 264.069 171.325 277.688C172.227 280.282 173.043 282.672 173.77 284.815C176.171 291.895 177.572 296.271 177.572 296.271Z" fill="#2F2E41"/>
<path d="M154.542 234.614C154.343 236.323 154.133 238.025 153.912 239.72C151.963 254.713 149.278 269.033 146.894 280.359C145.728 285.887 144.631 290.698 143.725 294.53C142.767 294.381 141.811 294.22 140.858 294.047C136.719 293.321 132.634 292.447 128.603 291.423C127.405 291.121 126.214 290.806 125.029 290.477L127.442 248.048L128.238 234.014L153.043 234.582L154.542 234.614Z" fill="#2F2E41"/>
<path d="M194.426 168.989C195.46 168.416 196.609 168.075 197.791 167.99C198.972 167.904 200.158 168.077 201.265 168.496C202.372 168.915 203.373 169.569 204.198 170.413C205.022 171.257 205.65 172.271 206.037 173.381L234.836 173.415L226.582 185.799L200.5 183.868C198.576 184.39 196.526 184.193 194.738 183.315C192.95 182.437 191.549 180.939 190.801 179.105C190.052 177.271 190.008 175.228 190.676 173.364C191.344 171.499 192.678 169.943 194.426 168.989Z" fill="#FFB6B6"/>
<path d="M210.127 185.737L261.995 190.848L262.131 190.675C262.393 190.343 288.356 157.374 292.719 149.526C295.403 144.811 296.38 139.327 295.489 133.985L295.459 133.854L295.356 133.767C293.24 132.009 290.584 131.018 287.825 130.958C285.066 130.898 282.368 131.772 280.177 133.437C269.643 141.531 261.148 151.943 255.365 163.852L252.083 170.629L214.02 172.249L210.127 185.737Z" fill="#343D68"/>
<path d="M190.123 278.643L182.479 296.299C181.382 296.375 180.284 296.437 179.184 296.484C178.315 296.529 177.45 296.561 176.577 296.585L176.28 296.678L176.037 296.601C174.863 296.637 173.685 296.66 172.503 296.67C172.003 296.674 171.504 296.678 171 296.678C170.764 296.678 170.529 296.678 170.293 296.674L170.801 294.949L171.398 292.906L173.77 284.815L177.194 273.134L182.288 275.302L190.123 278.643Z" fill="#FFB6B6"/>
<path d="M245.204 279.916C241.277 281.798 237.269 283.529 233.181 285.11L229.185 278.441L242.069 272.828L245.204 279.916Z" fill="#FFB6B6"/>
<path d="M272.39 249.607V263.654C270.013 265.394 267.59 267.073 265.119 268.69V249.607H272.39Z" fill="#CACACA"/>
<path d="M297.93 240.711C295.887 242.959 293.783 245.15 291.618 247.283C286.523 252.316 281.113 257.027 275.42 261.385H243.007C242.146 261.385 241.296 261.203 240.512 260.851C239.728 260.498 239.029 259.984 238.462 259.342L238.458 259.33C237.782 258.573 237.312 257.658 237.093 256.671L237.089 256.663C236.997 256.239 236.951 255.807 236.951 255.373V246.722C236.952 245.129 237.59 243.601 238.725 242.474C239.861 241.347 241.401 240.713 243.007 240.711H297.93Z" fill="#3F3D56"/>
<path d="M311.285 206.945L307.772 221.878C308.115 224.041 308.229 226.234 308.113 228.421C306.447 230.638 304.729 232.809 302.958 234.937C301.326 236.899 299.649 238.824 297.93 240.711C295.887 242.959 293.783 245.15 291.618 247.283C285.98 249.039 279.335 249.757 272.39 249.805C269.993 249.825 267.56 249.761 265.119 249.632C255.221 249.116 245.208 247.54 237.008 245.905C234.839 245.477 232.8 245.042 230.923 244.619C227.369 243.825 224.396 243.084 222.243 242.52C219.818 241.891 218.437 241.484 218.437 241.484L209.213 256.808L200.838 270.717L185.578 296.065C184.546 296.158 183.513 296.236 182.479 296.299C181.382 296.375 180.284 296.437 179.184 296.484C178.315 296.529 177.45 296.561 176.577 296.585L176.28 296.678L176.037 296.601L172.121 295.364L170.801 294.949L166.053 293.45C166.053 293.45 167.113 290.138 168.969 284.614C169.652 282.587 170.439 280.258 171.325 277.688C174.522 268.396 178.953 255.917 184.01 242.834C185.509 238.95 187.06 235.009 188.656 231.089C189.964 227.869 191.297 224.662 192.645 221.499C194.989 216.015 206.313 213.058 219.648 211.506C220.326 211.43 221.008 211.353 221.695 211.281C228.49 210.572 235.7 210.205 242.442 210.036C245.818 209.951 249.075 209.919 252.105 209.915C253.084 209.915 254.036 209.918 254.961 209.923H254.965C257.463 209.935 259.762 209.971 261.784 210.012C262.178 210.02 262.56 210.032 262.934 210.04H262.938C263.19 210.044 263.437 210.052 263.681 210.056C268.104 210.169 270.818 210.306 270.818 210.306L271.87 202.118L272.085 200.466L272.288 198.895V198.891L272.312 198.693L272.479 198.689L275.403 198.633L299.985 198.157L313.413 197.896L311.285 206.945Z" fill="#2F2E41"/>
<path d="M248.234 278.425C247.231 278.933 246.22 279.432 245.204 279.916C241.277 281.797 237.269 283.529 233.181 285.11C232.016 285.565 230.846 286.004 229.664 286.427C229.534 286.246 229.4 286.064 229.266 285.883C223.628 278.207 216.463 268.078 209.213 256.808C206.179 252.094 203.129 247.178 200.167 242.157L221.605 232.229L224.01 231.117L230.923 244.619L237.089 256.663L238.462 259.342L248.234 278.425Z" fill="#2F2E41"/>
<path d="M279.352 110.545C290.26 110.545 299.103 101.773 299.103 90.9525C299.103 80.1318 290.26 71.3598 279.352 71.3598C268.444 71.3598 259.602 80.1318 259.602 90.9525C259.602 101.773 268.444 110.545 279.352 110.545Z" fill="#FFB6B6"/>
<path d="M278.699 109.694C283.317 111.892 289 111.148 293.409 108.562C297.818 105.976 301.062 101.759 303.329 97.203C304.99 93.8665 306.196 90.0454 305.234 86.4488C304.273 82.8521 300.437 79.8385 296.843 80.9038C299.305 78.9371 299.018 74.8811 297.028 72.4442C295.039 70.0072 291.9 68.8354 288.867 67.9522C284.464 66.6705 279.839 65.7657 275.299 66.4214C270.759 67.077 266.289 69.5153 264.153 73.5429C262.67 73.922 261.102 73.8024 259.695 73.2029C258.288 72.6035 257.121 71.558 256.377 70.2303C255.882 71.5067 255.825 72.9092 256.215 74.221C256.604 75.5327 257.419 76.6805 258.532 77.4868L252.384 74.1775C250.816 76.3329 252.241 79.6201 254.62 80.8411C257 82.062 259.876 81.7364 262.473 81.084C265.07 80.4316 262.006 85.8724 264.685 85.9248C267.363 85.9772 270.261 87.3678 271.028 89.9143C271.43 91.248 271.195 92.6803 271.314 94.0673C271.432 95.4543 272.102 96.9931 273.457 97.3545C274.314 97.5827 275.25 97.2803 276.099 97.5337C277.152 97.848 277.793 98.9648 277.886 100.051C277.978 101.138 277.635 102.209 277.296 103.246C275.956 107.344 280.257 105.047 278.917 109.146L278.699 109.694Z" fill="#2F2E41"/>
<path d="M317.451 167.567C317.288 151.385 316.549 140.357 315.257 134.785C311.789 119.804 295.765 117.072 293.255 116.734C292.987 116.027 292.577 115.383 292.047 114.842C291.518 114.3 290.883 113.872 290.18 113.584C289.477 113.297 288.722 113.156 287.962 113.17C287.201 113.184 286.452 113.353 285.761 113.667L274.376 118.841C272.066 119.894 269.999 121.406 268.303 123.285C266.608 125.163 265.319 127.367 264.518 129.76L262.828 134.877L261.979 169.219L264.782 183.664L264.786 183.672L266.675 193.403L265.375 195.337L257.954 206.377L257.828 206.571L257.824 206.575L257.499 207.054C257.95 207.3 258.397 207.542 258.836 207.783C259.973 208.404 261.082 209.012 262.162 209.609C262.422 209.754 262.678 209.895 262.934 210.04H262.938C263.1 210.128 263.263 210.217 263.421 210.306C267.475 212.554 271.164 214.637 274.49 216.555C274.953 216.821 275.412 217.087 275.862 217.349C291.216 226.258 298.998 231.713 302.958 234.937C304.729 232.809 306.447 230.638 308.113 228.421C309.624 226.419 311.087 224.381 312.504 222.309C312.751 220.689 312.918 219.069 313.08 217.482C313.275 215.572 313.478 213.594 313.82 211.648C313.97 210.785 313.393 209.967 312.837 209.178C312.321 208.44 311.833 207.747 311.935 207.094C312.04 206.422 312.788 205.688 313.515 204.975C314.307 204.193 315.127 203.387 315.245 202.537C315.57 200.168 315.859 197.791 316.11 195.405C316.525 191.525 316.843 187.633 317.065 183.729C317.378 178.337 317.506 172.95 317.451 167.567Z" fill="#343D68"/>
<path d="M242.269 224.686C242.603 223.559 243.183 222.518 243.967 221.637C244.752 220.756 245.721 220.056 246.807 219.587C247.893 219.118 249.07 218.891 250.254 218.921C251.439 218.952 252.602 219.24 253.662 219.765L274.261 199.8L277.099 214.376L257.103 231.101C256.096 232.809 254.492 234.091 252.596 234.705C250.699 235.318 248.642 235.22 246.814 234.43C244.985 233.639 243.513 232.21 242.675 230.415C241.837 228.619 241.693 226.581 242.269 224.686Z" fill="#FFB6B6"/>
<path d="M265.299 225.753L305.96 193.404L305.936 193.185C305.889 192.766 301.184 151.191 298.765 142.556C297.357 137.324 294.187 132.728 289.782 129.53L289.669 129.457L289.534 129.467C286.782 129.679 284.186 130.814 282.172 132.687C280.158 134.559 278.848 137.056 278.457 139.766C276.639 152.861 277.915 166.196 282.182 178.718L284.618 185.838L258.567 213.415L265.299 225.753Z" fill="#343D68"/>
<path d="M57.0735 110.194C66.8065 110.194 74.6968 102.366 74.6968 92.7111C74.6968 83.0558 66.8065 75.2286 57.0735 75.2286C47.3404 75.2286 39.4501 83.0558 39.4501 92.7111C39.4501 102.366 47.3404 110.194 57.0735 110.194Z" fill="#A0616A"/>
<path d="M33.3962 225.869L33.3001 225.735C28.1664 218.605 35.8875 201.472 37.052 198.988C35.6691 198.543 34.4846 197.636 33.7001 196.422C32.9157 195.208 32.5797 193.761 32.7496 192.329L33.2516 188.096L33.7749 183.944L30.0261 180.225L30.0156 180.132L27.8583 161.406L24.7215 148.969C23.5397 144.267 23.6404 139.338 25.0134 134.687C26.3864 130.037 28.9822 125.833 32.5343 122.506L39.7848 121.364L48.5964 112.942H62.8061L67.6783 117.56C77.2572 125.349 79.5312 121.965 90.3326 136.628L82.5988 156.841L86.9216 186.653L86.9243 192.048L89.1758 194.53C89.9868 195.424 90.5761 196.494 90.8968 197.654C91.2175 198.814 91.2606 200.032 91.0228 201.212L90.7267 202.68C91.8711 203.167 92.8811 203.918 93.6722 204.872C94.4633 205.826 95.0123 206.954 95.2732 208.161L96.064 211.822C96.7405 212.707 101.206 218.614 101.206 220.229C101.206 220.471 101.026 220.706 100.639 220.966C97.5953 223.01 80.7748 227.177 73.3302 224.222C65.4003 221.077 33.8776 225.795 33.56 225.843L33.3962 225.869Z" fill="#3F3D56"/>
<path d="M24.443 154.951L39.0964 152.105C44.5155 160.134 47.4249 182.086 47.4249 182.086L63.6257 215.416C64.6215 216.016 65.4392 216.868 65.9955 217.883C66.5518 218.899 66.8268 220.042 66.7926 221.198C66.7583 222.353 66.416 223.479 65.8005 224.46C65.185 225.442 64.3183 226.244 63.2886 226.785C62.259 227.326 61.1032 227.586 59.939 227.54C58.7748 227.494 57.6438 227.142 56.6611 226.521C55.6784 225.9 54.8791 225.032 54.3448 224.005C53.8104 222.978 53.56 221.828 53.619 220.674L32.4889 181.184L24.443 154.951Z" fill="#A0616A"/>
<path d="M24.361 158.4L23.9444 136.795L30.8402 127.643C32.2005 125.851 34.039 124.473 36.1477 123.663C38.2564 122.854 40.5514 122.645 42.7733 123.061C45.7813 123.646 48.4534 125.342 50.2493 127.806C52.0451 130.27 52.8308 133.319 52.4473 136.336C51.2769 145.484 48.6196 156.933 42.6077 159.523L42.5468 159.549L48.7776 181.166L25.671 184.368L24.361 158.4Z" fill="#3F3D56"/>
<path d="M111.389 156.491C111.389 156.491 93.8041 142.855 84.2666 140.897L75.8251 153.115L98.6549 166.994L143.103 179.743C143.882 180.6 144.875 181.238 145.982 181.592C147.089 181.945 148.271 182.002 149.408 181.756C150.544 181.51 151.595 180.97 152.453 180.191C153.311 179.412 153.946 178.422 154.294 177.321C154.641 176.219 154.689 175.047 154.432 173.921C154.175 172.796 153.622 171.758 152.83 170.913C152.038 170.068 151.034 169.446 149.921 169.11C148.809 168.774 147.626 168.736 146.494 169L111.389 156.491Z" fill="#A0616A"/>
<path d="M80.4509 159.231L62.1246 147.55L58.2978 136.773C57.5543 134.655 57.4229 132.373 57.9184 130.184C58.414 127.995 59.5167 125.988 61.1019 124.388C63.2656 122.235 66.173 120.976 69.2362 120.867C72.2995 120.759 75.29 121.808 77.6033 123.803C84.6138 129.859 93.6483 131.889 92.4717 138.285L95.8469 138.774L113.107 151.778L102.928 172.604L80.4509 159.231Z" fill="#3F3D56"/>
<path d="M37.0837 81.2239C39.0626 78.1869 42.7762 76.1628 46.3762 76.7316C46.7113 74.4525 47.6702 72.3083 49.1487 70.5324C50.6271 68.7565 52.5684 67.417 54.7611 66.6598C56.9538 65.9026 59.314 65.7567 61.5845 66.2379C63.855 66.7192 65.9489 67.8092 67.6382 69.3892C68.6982 68.5526 70.2389 68.5086 71.4971 69.0061C72.7361 69.565 73.814 70.4233 74.6321 71.5024C76.6979 74.058 78.0264 77.1213 78.4764 80.3664C78.9263 83.6115 78.4808 86.917 77.1873 89.9308C77.6273 88.3442 76.0243 86.8515 74.4048 86.4954C72.7853 86.1394 71.0865 86.4762 69.4442 86.2444C67.3393 85.9473 65.4471 84.7359 63.3388 84.4633C61.567 84.2342 59.7852 84.6848 58.0574 85.1366C56.3295 85.5883 54.5523 86.0489 52.778 85.8399C51.0035 85.6309 48.7179 92.3016 48.7486 97C48.7544 97.8904 48.5695 99.0336 47.6923 99.2225C46.6121 99.4552 45.9862 97.9762 44.958 97.5732C44.042 97.2141 42.9438 97.8796 42.6249 98.804C42.4953 99.2768 42.4814 99.7734 42.5844 100.253C42.6874 100.732 42.9043 101.18 43.217 101.559C43.849 102.311 44.5992 102.956 45.4388 103.471L45.0153 103.82C44.3109 104.743 42.8499 104.783 41.8346 104.212C40.8195 103.641 40.1523 102.625 39.5509 101.633C37.6726 98.5336 36.025 95.2315 35.3621 91.6756C34.6993 88.1198 35.105 84.2609 37.0837 81.2239Z" fill="#2F2E41"/>
<path opacity="0.2" d="M191.851 110.604C193.639 117.992 194.463 125.577 194.305 133.173C194.153 140.77 193.033 148.318 190.972 155.636C189.809 159.769 188.341 163.812 186.582 167.732C186.265 168.436 187.315 169.052 187.634 168.342C190.811 161.279 193.057 153.839 194.317 146.206C195.582 138.572 195.866 130.81 195.161 123.104C194.763 118.785 194.049 114.5 193.026 110.282C192.843 109.526 191.667 109.846 191.851 110.604Z" fill="black"/>
<path opacity="0.2" d="M305.618 162.302L295.432 186.968C293.793 190.938 292.202 194.932 290.496 198.874C288.96 202.424 287.208 205.988 284.622 208.915C282.013 211.868 278.502 214.266 274.492 214.734C273.723 214.824 273.713 216.034 274.492 215.943C278.155 215.515 281.439 213.708 284.09 211.21C286.958 208.508 288.979 205.067 290.628 201.535C292.467 197.599 294.03 193.528 295.688 189.515L300.896 176.904L306.793 162.623C307.09 161.904 305.912 161.59 305.618 162.302Z" fill="black"/>
<path d="M184.875 184.691C185.054 185.207 185.393 185.655 185.845 185.968C186.296 186.282 186.836 186.445 187.386 186.436L198.147 186.161C198.702 186.15 199.238 185.962 199.676 185.624C200.114 185.285 200.429 184.816 200.576 184.285L202.099 168.132C202.639 168.375 203.227 168.495 203.82 168.483C204.335 168.47 204.843 168.357 205.314 168.15C205.785 167.942 206.21 167.645 206.565 167.274C206.92 166.904 207.198 166.468 207.384 165.991C207.569 165.513 207.657 165.005 207.645 164.494C207.632 163.983 207.517 163.479 207.308 163.012C207.099 162.545 206.799 162.123 206.426 161.771C206.052 161.418 205.613 161.142 205.132 160.959C204.651 160.775 204.138 160.687 203.623 160.7C203.386 160.699 203.15 160.724 202.918 160.773C202.666 160.502 202.359 160.287 202.018 160.141C201.677 159.995 201.309 159.922 200.938 159.925L184.386 160.349C184.249 160.354 184.112 160.371 183.978 160.4C183.615 160.467 183.271 160.61 182.968 160.82C182.666 161.031 182.412 161.303 182.225 161.618C182.037 161.934 181.92 162.285 181.881 162.65C181.842 163.014 181.882 163.382 181.999 163.73L184.875 184.691ZM202.411 167.036L203.494 163.186C203.618 162.742 203.621 162.273 203.503 161.827C203.555 161.827 203.602 161.802 203.654 161.802C204.397 161.787 205.116 162.064 205.653 162.574C206.19 163.083 206.501 163.783 206.518 164.52C206.536 165.257 206.258 165.971 205.746 166.505C205.233 167.039 204.529 167.35 203.786 167.369C203.305 167.384 202.83 167.269 202.411 167.036Z" fill="#2F2E41"/>
<path d="M183.978 160.4C184.331 162.4 188.295 163.806 193.062 163.561C197.446 163.361 201.031 161.834 201.687 160.024C201.444 159.953 201.192 159.92 200.938 159.925L184.386 160.349C184.249 160.354 184.112 160.371 183.978 160.4Z" fill="#3F3D56"/>
<path d="M149.035 162.924C149.151 162.576 149.191 162.208 149.152 161.844C149.113 161.479 148.996 161.128 148.808 160.812C148.621 160.497 148.367 160.225 148.065 160.015C147.763 159.804 147.418 159.661 147.055 159.594C146.921 159.565 146.784 159.548 146.647 159.543L130.095 159.119C129.724 159.116 129.356 159.189 129.015 159.335C128.674 159.481 128.367 159.696 128.115 159.967C127.884 159.918 127.647 159.893 127.41 159.894C126.37 159.868 125.362 160.253 124.607 160.965C123.853 161.676 123.415 162.656 123.389 163.688C123.363 164.72 123.751 165.72 124.468 166.468C125.185 167.216 126.173 167.651 127.213 167.677C127.806 167.689 128.394 167.569 128.935 167.326L130.457 183.479C130.604 184.01 130.92 184.479 131.357 184.818C131.795 185.156 132.332 185.344 132.887 185.355L143.647 185.63C144.198 185.64 144.738 185.476 145.189 185.162C145.64 184.849 145.979 184.402 146.158 183.885L149.035 162.924ZM127.248 166.563C126.505 166.544 125.8 166.233 125.288 165.699C124.775 165.165 124.497 164.452 124.515 163.715C124.532 162.978 124.844 162.278 125.38 161.768C125.917 161.258 126.636 160.981 127.379 160.996C127.432 160.996 127.478 161.021 127.531 161.021C127.413 161.467 127.416 161.936 127.539 162.381L128.622 166.23C128.203 166.463 127.728 166.578 127.248 166.563Z" fill="#2F2E41"/>
<path d="M147.055 159.594C146.703 161.594 142.738 163 137.971 162.756C133.587 162.555 130.003 161.028 129.346 159.218C129.589 159.147 129.842 159.114 130.095 159.119L146.647 159.543C146.784 159.548 146.921 159.565 147.055 159.594Z" fill="#3F3D56"/>
<path d="M131.369 124.506C132.198 123.906 133.15 123.492 134.158 123.296C135.165 123.099 136.204 123.124 137.201 123.369C138.198 123.614 139.129 124.073 139.927 124.713C140.726 125.353 141.374 126.159 141.825 127.075L166.607 124.101L160.818 135.617L138.172 136.675C136.571 137.325 134.786 137.369 133.155 136.8C131.524 136.231 130.16 135.088 129.322 133.588C128.483 132.088 128.228 130.335 128.606 128.662C128.983 126.988 129.966 125.509 131.369 124.506Z" fill="#9E616A"/>
<path d="M212.19 101.052C211.459 102.474 210.57 104.13 209.57 105.935C206.061 112.297 201.24 120.509 197.527 126.758C194.355 132.089 191.987 135.998 191.922 136.106L191.821 136.268L170.013 136.755L165.334 136.86L163.742 136.896L146.654 137.279L146.816 136.272L148.413 126.287L148.575 125.268L163.543 122.802L169.014 121.903L181.15 119.905L183.258 113.732C186.971 102.882 193.176 93.0375 201.382 84.9747C201.622 84.745 201.865 84.5274 202.121 84.3219C202.345 84.1446 202.572 83.9754 202.804 83.8223C203.786 85.2043 204.664 86.4534 205.407 87.4567L207.207 89.8864C209.663 93.2061 211.364 97.0157 212.19 101.052Z" fill="#343D68"/>
<path d="M121.511 137.951C121.69 138.468 122.03 138.915 122.481 139.229C122.932 139.542 123.472 139.706 124.023 139.696L134.783 139.421C135.338 139.411 135.875 139.222 136.312 138.884C136.75 138.545 137.066 138.076 137.213 137.545L138.735 121.392C139.275 121.635 139.864 121.755 140.457 121.743C141.497 121.717 142.484 121.283 143.202 120.534C143.919 119.786 144.307 118.786 144.281 117.754C144.255 116.722 143.817 115.742 143.062 115.031C142.308 114.319 141.3 113.934 140.26 113.96C140.023 113.959 139.786 113.984 139.554 114.033C139.302 113.762 138.996 113.547 138.655 113.401C138.314 113.255 137.946 113.182 137.575 113.186L121.023 113.61C120.886 113.615 120.749 113.631 120.615 113.66C120.252 113.727 119.907 113.87 119.605 114.081C119.303 114.291 119.049 114.563 118.861 114.878C118.674 115.194 118.557 115.546 118.518 115.91C118.479 116.274 118.519 116.642 118.635 116.99L121.511 137.951ZM139.047 120.296L140.131 116.447C140.254 116.002 140.257 115.533 140.139 115.087C140.192 115.087 140.238 115.062 140.291 115.062C141.034 115.047 141.752 115.324 142.289 115.834C142.826 116.344 143.138 117.044 143.155 117.781C143.172 118.518 142.894 119.231 142.382 119.765C141.87 120.299 141.165 120.61 140.422 120.629C139.942 120.644 139.467 120.529 139.047 120.296Z" fill="#CCCCCC"/>
<path d="M120.615 113.66C120.967 115.66 124.932 117.066 129.699 116.822C134.083 116.621 137.667 115.094 138.324 113.285C138.081 113.213 137.828 113.18 137.575 113.186L121.023 113.609C120.886 113.615 120.749 113.631 120.615 113.66Z" fill="#3F3D56"/>
</g>
<defs>
<clipPath id="clip0_8_136">
<rect width="342" height="297" fill="white"/>
</clipPath>
</defs>
</svg>
